<svg xmlns="http://www.w3.org/2000/svg" viewBox="0 0 200 200" width="200" height="200">
  <defs>
  <filter id="sketch" x="-5%" y="-5%" width="110%" height="110%">
    <feTurbulence type="turbulence" baseFrequency="0.035" numOctaves="4" seed="12" result="noise"></feTurbulence>
    <feDisplacementMap in="SourceGraphic" in2="noise" scale="2.2" xChannelSelector="R" yChannelSelector="G"></feDisplacementMap>
  </filter>
  <filter id="wc" x="-8%" y="-8%" width="116%" height="116%">
    <feTurbulence type="fractalNoise" baseFrequency="0.055 0.09" numOctaves="5" seed="7" result="n"></feTurbulence>
    <feColorMatrix type="matrix" values="0 0 0 0 0  0 0 0 0 0  0 0 0 0 0  0 0 0 -2 2.2" in="n" result="mask"></feColorMatrix>
    <feComposite in="SourceGraphic" in2="mask" operator="in" result="wc"></feComposite>
    <feComposite in="wc" in2="SourceGraphic" operator="over"></feComposite>
  </filter>
  <filter id="softblur"><feGaussianBlur stdDeviation="1.2"></feGaussianBlur></filter></defs>
  <g filter="url(#sketch)">
    
    <ellipse cx="105" cy="100" rx="28" ry="18" fill="#0095A1" opacity="0.9"></ellipse>
    
    <ellipse cx="98" cy="106" rx="14" ry="12" fill="#E8F9FA" opacity="0.8"></ellipse>
    
    <circle cx="138" cy="92" r="16" fill="#005E6A"></circle>
    
    <ellipse cx="143" cy="98" rx="8" ry="6" fill="#E8F9FA" opacity="0.7"></ellipse>
    
    <circle cx="144" cy="89" r="3.5" fill="#005E6A"></circle>
    <circle cx="144" cy="89" r="2" fill="#1A1A1A"></circle>
    <circle cx="145.2" cy="88" r="0.8" fill="white"></circle>
    
    <path d="M152,91 L164,89 L154,94 Z" fill="#6B4A2A" opacity="0.85"></path>
    
    <path d="M108,95 C95,82 78,74 62,76 C74,80 90,88 108,95 Z" fill="#0095A1" opacity="0.85"></path>
    <path d="M108,95 C90,84 72,80 58,84 C72,86 90,90 108,95 Z" fill="#00D4BB" opacity="0.5"></path>
    
    <path d="M100,93 C88,83 75,77 62,78" stroke="#005E6A" stroke-width="0.8" fill="none" opacity="0.5"></path>
    <path d="M100,96 C86,87 72,82 58,84" stroke="#005E6A" stroke-width="0.7" fill="none" opacity="0.4"></path>
    
    <path d="M78,108 C58,120 40,140 30,158 C50,145 68,128 82,112 Z" fill="#0095A1" opacity="0.8"></path>
    <path d="M78,108 C55,125 38,148 32,168 C52,150 70,130 82,112 Z" fill="#00D4BB" opacity="0.6"></path>
    <path d="M80,110 C62,128 48,150 45,172 C62,153 76,133 84,114 Z" fill="#0095A1" opacity="0.7"></path>
    <path d="M82,112 C68,132 60,155 60,178 C72,158 80,136 86,116 Z" fill="#00D4BB" opacity="0.65"></path>
    <path d="M83,114 C74,136 70,160 74,182 C80,162 84,140 88,118 Z" fill="#0095A1" opacity="0.6"></path>
    <path d="M84,116 C80,138 80,162 86,184 C87,164 87,142 90,120 Z" fill="#00D4BB" opacity="0.55"></path>
    <path d="M85,118 C86,140 90,163 100,182 C94,162 91,140 91,120 Z" fill="#0095A1" opacity="0.6"></path>
    
    <circle cx="42" cy="162" r="3.5" fill="white" opacity="0.7"></circle>
    <circle cx="52" cy="168" r="3" fill="white" opacity="0.65"></circle>
    <circle cx="63" cy="172" r="3" fill="white" opacity="0.6"></circle>
    <circle cx="76" cy="174" r="2.8" fill="white" opacity="0.6"></circle>
    <circle cx="89" cy="172" r="2.5" fill="white" opacity="0.55"></circle>
    
    <ellipse cx="82" cy="116" rx="10" ry="8" fill="#005E6A" opacity="0.6"></ellipse>
    
    <path d="M104,118 C102,130 100,140 98,148" stroke="#6B4A2A" stroke-width="1.8" fill="none" stroke-linecap="round"></path>
    <path d="M112,118 C112,130 111,140 110,148" stroke="#6B4A2A" stroke-width="1.8" fill="none" stroke-linecap="round"></path>
    
    <path d="M98,148 C94,151 90,152 87,151 M98,148 C96,154 95,158 94,160" stroke="#6B4A2A" stroke-width="1.3" fill="none" stroke-linecap="round"></path>
    <path d="M110,148 C114,151 118,152 121,151 M110,148 C110,154 110,158 111,160" stroke="#6B4A2A" stroke-width="1.3" fill="none" stroke-linecap="round"></path>
    
    <path d="M60,155 C80,152 110,150 140,153" stroke="#6B4A2A" stroke-width="3.5" fill="none" stroke-linecap="round" opacity="0.55"></path>
    <path d="M62,156 C82,154 112,152 140,155" stroke="#8B6540" stroke-width="1" fill="none" opacity="0.3"></path></g>
</svg>