<svg xmlns="http://www.w3.org/2000/svg" viewBox="0 0 512 512">
<defs>
  <linearGradient id="cs-case" x1="0" y1="0" x2="1" y2="1">
    <stop offset="0%" stop-color="#047857"></stop>
    <stop offset="100%" stop-color="#0095A1"></stop>
  </linearGradient>
  <linearGradient id="cs-stripe" x1="0" y1="0" x2="0" y2="1">
    <stop offset="0%" stop-color="#065F46" stop-opacity="0.5"></stop>
    <stop offset="100%" stop-color="#0369A1" stop-opacity="0.5"></stop>
  </linearGradient>
  <linearGradient id="cs-handle" x1="0" y1="0" x2="0" y2="1">
    <stop offset="0%" stop-color="#D1D5DB"></stop>
    <stop offset="100%" stop-color="#9CA3AF"></stop>
  </linearGradient>
  <linearGradient id="cs-coffee" x1="0" y1="0" x2="0" y2="1">
    <stop offset="0%" stop-color="#EA580C"></stop>
    <stop offset="100%" stop-color="#9A3412"></stop>
  </linearGradient>
  <linearGradient id="cs-steam" x1="0" y1="0" x2="0" y2="1">
    <stop offset="0%" stop-color="#C7E5E8" stop-opacity="0"></stop>
    <stop offset="100%" stop-color="#C7E5E8" stop-opacity="0.8"></stop>
  </linearGradient>
  <filter id="cs-shadow">
    <feDropShadow dx="0" dy="10" stdDeviation="14" flood-color="#10233A" flood-opacity="0.28"></feDropShadow>
  </filter>
</defs>


<g filter="url(#cs-shadow)">
  
  <rect x="108" y="170" width="248" height="268" rx="28" fill="url(#cs-case)"></rect>
  
  
  <rect x="108" y="240" width="248" height="18" fill="url(#cs-stripe)"></rect>
  <rect x="108" y="298" width="248" height="18" fill="url(#cs-stripe)"></rect>
  <rect x="108" y="356" width="248" height="18" fill="url(#cs-stripe)"></rect>
  
  
  <rect x="224" y="178" width="16" height="252" rx="8" fill="rgba(0,0,0,0.2)"></rect>
  
  
  <path d="M224,182 L224,422" stroke="#00D4BA" stroke-width="3" stroke-dasharray="6,4"></path>
  <path d="M240,182 L240,422" stroke="#00D4BA" stroke-width="3" stroke-dasharray="6,4" stroke-dashoffset="5"></path>
  
  
  <rect x="218" y="268" width="28" height="16" rx="8" fill="#00D4BA"></rect>
  <rect x="222" y="272" width="20" height="8" rx="4" fill="white" opacity="0.6"></rect>
  
  
  <rect x="212" y="300" width="40" height="32" rx="8" fill="rgba(0,0,0,0.3)"></rect>
  <rect x="218" y="306" width="28" height="20" rx="5" fill="#00D4BA" opacity="0.8"></rect>
  
  <line x1="224" y1="306" x2="224" y2="326" stroke="rgba(0,0,0,0.3)" stroke-width="1.5"></line>
  <line x1="232" y1="306" x2="232" y2="326" stroke="rgba(0,0,0,0.3)" stroke-width="1.5"></line>
  <line x1="240" y1="306" x2="240" y2="326" stroke="rgba(0,0,0,0.3)" stroke-width="1.5"></line>
  
  
  <rect x="108" y="170" width="28" height="28" rx="14" fill="rgba(0,0,0,0.2)"></rect>
  <rect x="328" y="170" width="28" height="28" rx="14" fill="rgba(0,0,0,0.2)"></rect>
  <rect x="108" y="410" width="28" height="28" rx="14" fill="rgba(0,0,0,0.2)"></rect>
  <rect x="328" y="410" width="28" height="28" rx="14" fill="rgba(0,0,0,0.2)"></rect>
  
  
  <rect x="120" y="178" width="60" height="200" rx="12" fill="white" opacity="0.08"></rect>
  
  
  <rect x="200" y="88" width="16" height="88" rx="8" fill="url(#cs-handle)"></rect>
  <rect x="248" y="88" width="16" height="88" rx="8" fill="url(#cs-handle)"></rect>
  <rect x="198" y="82" width="116" height="20" rx="10" fill="#D1D5DB"></rect>
  <rect x="202" y="86" width="108" height="12" rx="6" fill="#9CA3AF"></rect>
  
  <rect x="200" y="86" width="16" height="6" rx="3" fill="#6B7280"></rect>
  <rect x="248" y="86" width="16" height="6" rx="3" fill="#6B7280"></rect>

  
  <circle cx="148" cy="445" r="18" fill="#1F2937"></circle>
  <circle cx="148" cy="445" r="10" fill="#374151"></circle>
  <circle cx="148" cy="445" r="4" fill="#9CA3AF"></circle>
  <circle cx="316" cy="445" r="18" fill="#1F2937"></circle>
  <circle cx="316" cy="445" r="10" fill="#374151"></circle>
  <circle cx="316" cy="445" r="4" fill="#9CA3AF"></circle>
  
  
  <rect x="334" y="248" width="32" height="44" rx="6" fill="#C7E5E8"></rect>
  <path d="M350,246 L350,240" stroke="#9CA3AF" stroke-width="3" stroke-linecap="round"></path>
  <rect x="338" y="254" width="24" height="3" rx="1.5" fill="#94A3B8"></rect>
  <rect x="338" y="262" width="20" height="2" rx="1" fill="#94A3B8" opacity="0.6"></rect>
  <rect x="338" y="268" width="22" height="2" rx="1" fill="#94A3B8" opacity="0.5"></rect>
</g>


<g filter="url(#cs-shadow)" transform="translate(320, 310)">
  
  <path d="M28,0 C28,-14 36,-18 28,-32" stroke="url(#cs-steam)" stroke-width="5" fill="none" stroke-linecap="round" opacity="0.7"></path>
  <path d="M44,0 C44,-18 52,-22 44,-38" stroke="url(#cs-steam)" stroke-width="4" fill="none" stroke-linecap="round" opacity="0.5"></path>
  <path d="M60,0 C60,-12 68,-16 60,-28" stroke="url(#cs-steam)" stroke-width="4" fill="none" stroke-linecap="round" opacity="0.5"></path>
  
  
  <path d="M8,12 L16,100 Q44,112 72,100 L80,12 Q44,-4 8,12 Z" fill="url(#cs-coffee)"></path>
  
  <ellipse cx="44" cy="12" rx="36" ry="12" fill="#EA580C"></ellipse>
  <ellipse cx="44" cy="10" rx="36" ry="12" fill="#F97316"></ellipse>
  
  <ellipse cx="44" cy="18" rx="30" ry="9" fill="#7C2D12" opacity="0.8"></ellipse>
  
  <path d="M80,38 C104,38 108,72 80,76" stroke="#C2410C" stroke-width="10" fill="none" stroke-linecap="round"></path>
  <path d="M80,40 C100,40 104,70 80,74" stroke="#EA580C" stroke-width="5" fill="none" stroke-linecap="round" opacity="0.5"></path>
  
  <path d="M10,40 L18,80 Q44,90 70,80 L78,40 Q44,28 10,40 Z" fill="#C2410C" opacity="0.6"></path>
  
  <ellipse cx="32" cy="50" rx="8" ry="22" fill="white" opacity="0.1" transform="rotate(-10,32,50)"></ellipse>
  
  <ellipse cx="44" cy="108" rx="50" ry="14" fill="#C2410C" opacity="0.7"></ellipse>
  <ellipse cx="44" cy="105" rx="50" ry="14" fill="#EA580C"></ellipse>
  <ellipse cx="44" cy="103" rx="40" ry="9" fill="#F97316" opacity="0.5"></ellipse>
</g>
</svg>