<svg xmlns="http://www.w3.org/2000/svg" viewBox="0 0 512 512">
<defs>
  <linearGradient id="fp-house" x1="0" y1="0" x2="1" y2="1">
    <stop offset="0%" stop-color="#7C3AED"></stop>
    <stop offset="100%" stop-color="#E11D48"></stop>
  </linearGradient>
  <linearGradient id="fp-roof" x1="0" y1="0" x2="1" y2="1">
    <stop offset="0%" stop-color="#6D28D9"></stop>
    <stop offset="100%" stop-color="#BE185D"></stop>
  </linearGradient>
  <linearGradient id="fp-dad" x1="0" y1="0" x2="0" y2="1">
    <stop offset="0%" stop-color="#EDE9FE"></stop>
    <stop offset="100%" stop-color="#C4B5FD"></stop>
  </linearGradient>
  <linearGradient id="fp-mom" x1="0" y1="0" x2="0" y2="1">
    <stop offset="0%" stop-color="#FCE7F3"></stop>
    <stop offset="100%" stop-color="#FBCFE8"></stop>
  </linearGradient>
  <linearGradient id="fp-child" x1="0" y1="0" x2="0" y2="1">
    <stop offset="0%" stop-color="#FEF3C7"></stop>
    <stop offset="100%" stop-color="#FDE68A"></stop>
  </linearGradient>
  <filter id="fp-shadow">
    <feDropShadow dx="0" dy="10" stdDeviation="14" flood-color="#10233A" flood-opacity="0.25"></feDropShadow>
  </filter>
  <filter id="fp-glow">
    <feGaussianBlur stdDeviation="6" result="b"></feGaussianBlur>
    <feMerge><feMergeNode in="b"></feMergeNode><feMergeNode in="SourceGraphic"></feMergeNode></feMerge>
  </filter>
</defs>


<ellipse cx="256" cy="470" rx="150" ry="20" fill="#10233A" opacity="0.15"></ellipse>


<g filter="url(#fp-shadow)">
  
  <rect x="100" y="258" width="312" height="200" rx="28" fill="url(#fp-house)"></rect>
  
  
  <path d="M80,274 L256,118 L432,274 Q424,258 406,258 L256,148 L106,258 Q88,258 80,274 Z" fill="url(#fp-roof)"></path>
  <path d="M80,274 L256,148 L432,274" fill="url(#fp-roof)"></path>
  
  
  <path d="M82,270 L256,122 L430,270" stroke="rgba(255,255,255,0.25)" stroke-width="4" fill="none" stroke-linecap="round"></path>
  
  
  <rect x="332" y="150" width="36" height="72" rx="6" fill="#5B21B6"></rect>
  <rect x="326" y="144" width="48" height="16" rx="8" fill="#6D28D9"></rect>
  
  <circle cx="350" cy="128" r="12" fill="#EDE9FE" opacity="0.5"></circle>
  <circle cx="362" cy="112" r="9" fill="#EDE9FE" opacity="0.35"></circle>
  <circle cx="356" cy="96" r="7" fill="#EDE9FE" opacity="0.2"></circle>
  
  
  <rect x="210" y="340" width="92" height="118" rx="16" fill="rgba(0,0,0,0.25)"></rect>
  <rect x="216" y="346" width="80" height="106" rx="12" fill="#4C1D95" opacity="0.7"></rect>
  
  <ellipse cx="256" cy="382" rx="24" ry="24" fill="#C7E5E8" opacity="0.4"></ellipse>
  <ellipse cx="256" cy="382" rx="16" ry="16" fill="#C7E5E8" opacity="0.3"></ellipse>
  
  <circle cx="284" cy="406" r="6" fill="#00D4BA"></circle>
  
  <rect x="200" y="452" width="112" height="14" rx="7" fill="rgba(0,0,0,0.2)"></rect>
  
  
  
  <rect x="120" y="292" width="72" height="64" rx="12" fill="rgba(0,0,0,0.2)"></rect>
  <rect x="126" y="298" width="60" height="52" rx="8" fill="#C7E5E8" opacity="0.35"></rect>
  <line x1="156" y1="298" x2="156" y2="350" stroke="rgba(255,255,255,0.4)" stroke-width="2"></line>
  <line x1="126" y1="324" x2="186" y2="324" stroke="rgba(255,255,255,0.4)" stroke-width="2"></line>
  
  
  <rect x="320" y="292" width="72" height="64" rx="12" fill="rgba(0,0,0,0.2)"></rect>
  <rect x="326" y="298" width="60" height="52" rx="8" fill="#C7E5E8" opacity="0.35"></rect>
  <line x1="356" y1="298" x2="356" y2="350" stroke="rgba(255,255,255,0.4)" stroke-width="2"></line>
  <line x1="326" y1="324" x2="386" y2="324" stroke="rgba(255,255,255,0.4)" stroke-width="2"></line>
  
  
  <rect x="112" y="266" width="50" height="160" rx="14" fill="white" opacity="0.07"></rect>
  
  
  <ellipse cx="256" cy="160" rx="30" ry="20" fill="white" opacity="0.12"></ellipse>
</g>



<g filter="url(#fp-shadow)">
  <circle cx="196" cy="218" r="26" fill="url(#fp-dad)"></circle>
  <rect x="174" y="240" width="44" height="60" rx="20" fill="url(#fp-dad)" opacity="0.9"></rect>
  
  <path d="M172,212 C172,196 182,184 196,182 C210,184 220,196 220,212" fill="#7C3AED" opacity="0.7"></path>
  
  <ellipse cx="188" cy="208" rx="8" ry="6" fill="white" opacity="0.3"></ellipse>
</g>


<g filter="url(#fp-shadow)">
  <circle cx="256" cy="210" r="24" fill="url(#fp-mom)"></circle>
  <path d="M236,232 C234,246 232,262 234,274 C240,280 272,280 278,274 C280,262 278,246 276,232 C270,236 262,238 256,238 C250,238 242,236 236,232 Z" fill="url(#fp-mom)" opacity="0.9"></path>
  
  <path d="M234,204 C232,188 241,176 256,174 C271,176 280,188 278,204 L278,218 C270,208 264,204 256,204 C248,204 240,208 234,218 Z" fill="#E11D48" opacity="0.6"></path>
  
  <ellipse cx="248" cy="200" rx="7" ry="5" fill="white" opacity="0.3"></ellipse>
</g>


<g filter="url(#fp-shadow)">
  <circle cx="316" cy="224" r="20" fill="url(#fp-child)"></circle>
  <rect x="298" y="242" width="36" height="50" rx="16" fill="url(#fp-child)" opacity="0.9"></rect>
  
  <path d="M297,218 C296,206 304,196 316,194 C328,196 336,206 335,218" fill="#EA580C" opacity="0.6"></path>
  
  <ellipse cx="309" cy="214" rx="6" ry="4" fill="white" opacity="0.3"></ellipse>
</g>


<g filter="url(#fp-glow)">
  <path d="M256,88 C256,78 263,70 271,70 C279,70 286,77 286,87 C286,100 256,116 256,116 C256,116 226,100 226,87 C226,77 233,70 241,70 C249,70 256,78 256,88 Z" fill="#E11D48" opacity="0.9"></path>
</g>
</svg>