<svg xmlns="http://www.w3.org/2000/svg" viewBox="0 0 420 520" width="420" height="520">
  <defs>
  <filter id="sketch" x="-5%" y="-5%" width="110%" height="110%">
    <feTurbulence type="turbulence" baseFrequency="0.035" numOctaves="4" seed="12" result="noise"></feTurbulence>
    <feDisplacementMap in="SourceGraphic" in2="noise" scale="2.2" xChannelSelector="R" yChannelSelector="G"></feDisplacementMap>
  </filter>
  <filter id="wc" x="-8%" y="-8%" width="116%" height="116%">
    <feTurbulence type="fractalNoise" baseFrequency="0.055 0.09" numOctaves="5" seed="7" result="n"></feTurbulence>
    <feColorMatrix type="matrix" values="0 0 0 0 0  0 0 0 0 0  0 0 0 0 0  0 0 0 -2 2.2" in="n" result="mask"></feColorMatrix>
    <feComposite in="SourceGraphic" in2="mask" operator="in" result="wc"></feComposite>
    <feComposite in="wc" in2="SourceGraphic" operator="over"></feComposite>
  </filter>
  <filter id="softblur"><feGaussianBlur stdDeviation="1.2"></feGaussianBlur></filter></defs>
  <g filter="url(#sketch)"><path d="M210,515 C170,400 140,290 130,180" stroke="#1A6B50" stroke-width="2.2" fill="none" stroke-linecap="round"></path><path d="M202.14,492.07 Q213.61,485.71 223.06,480.56 Q203.22,484.27 202.14,492.07 Z" fill="#2A8E6A" opacity="0.77"></path><line x1="202.14" y1="492.07" x2="223.06" y2="480.56" stroke="#1A6B50" stroke-width="0.7" opacity="0.5"></line><path d="M202.14,492.07 Q189.16,493.97 178.51,495.57 Q196.55,486.52 202.14,492.07 Z" fill="#2A8E6A" opacity="0.58"></path><line x1="202.14" y1="492.07" x2="178.51" y2="495.57" stroke="#1A6B50" stroke-width="0.7" opacity="0.5"></line><path d="M194.56,469.25 Q206.63,462.73 215.98,457.43 Q195.77,461.11 194.56,469.25 Z" fill="#2A8E6A" opacity="0.84"></path><line x1="194.56" y1="469.25" x2="215.98" y2="457.43" stroke="#1A6B50" stroke-width="0.7" opacity="0.5"></line><path d="M194.56,469.25 Q180.95,471.11 170.38,472.68 Q188.77,463.39 194.56,469.25 Z" fill="#2A8E6A" opacity="0.65"></path><line x1="194.56" y1="469.25" x2="170.38" y2="472.68" stroke="#1A6B50" stroke-width="0.7" opacity="0.5"></line><path d="M187.28,446.56 Q199.22,440.27 208.57,435.17 Q188.56,438.56 187.28,446.56 Z" fill="#2A8E6A" opacity="0.58"></path><line x1="187.28" y1="446.56" x2="208.57" y2="435.17" stroke="#1A6B50" stroke-width="0.7" opacity="0.5"></line><path d="M187.28,446.56 Q173.89,448.24 163.38,449.66 Q181.65,440.74 187.28,446.56 Z" fill="#2A8E6A" opacity="0.74"></path><line x1="187.28" y1="446.56" x2="163.38" y2="449.66" stroke="#1A6B50" stroke-width="0.7" opacity="0.5"></line><path d="M180.32,423.97 Q192.67,417.66 202.69,412.54 Q181.74,415.78 180.32,423.97 Z" fill="#2A8E6A" opacity="0.62"></path><line x1="180.32" y1="423.97" x2="202.69" y2="412.54" stroke="#1A6B50" stroke-width="0.7" opacity="0.5"></line><path d="M180.32,423.97 Q166.55,425.53 155.38,426.85 Q174.61,417.92 180.32,423.97 Z" fill="#2A8E6A" opacity="0.57"></path><line x1="180.32" y1="423.97" x2="155.38" y2="426.85" stroke="#1A6B50" stroke-width="0.7" opacity="0.5"></line><path d="M173.7,401.48 Q183.57,396.6 191.33,392.64 Q174.91,394.99 173.7,401.48 Z" fill="#2A8E6A" opacity="0.58"></path><line x1="173.7" y1="401.48" x2="191.33" y2="392.64" stroke="#1A6B50" stroke-width="0.7" opacity="0.5"></line><path d="M173.7,401.48 Q162.75,402.58 154.12,403.51 Q169.24,396.62 173.7,401.48 Z" fill="#2A8E6A" opacity="0.74"></path><line x1="173.7" y1="401.48" x2="154.12" y2="403.51" stroke="#1A6B50" stroke-width="0.7" opacity="0.5"></line><path d="M167.44,379.08 Q177.58,374.24 186.51,370.31 Q168.77,372.47 167.44,379.08 Z" fill="#2A8E6A" opacity="0.77"></path><line x1="167.44" y1="379.08" x2="186.51" y2="370.31" stroke="#1A6B50" stroke-width="0.7" opacity="0.5"></line><path d="M167.44,379.08 Q156.24,380.04 146.47,380.86 Q162.95,374.05 167.44,379.08 Z" fill="#2A8E6A" opacity="0.52"></path><line x1="167.44" y1="379.08" x2="146.47" y2="380.86" stroke="#1A6B50" stroke-width="0.7" opacity="0.5"></line><path d="M161.55,356.76 Q171.08,352.38 178.23,348.84 Q162.88,350.61 161.55,356.76 Z" fill="#2A8E6A" opacity="0.81"></path><line x1="161.55" y1="356.76" x2="178.23" y2="348.84" stroke="#1A6B50" stroke-width="0.7" opacity="0.5"></line><path d="M161.55,356.76 Q151.09,357.5 143.2,358.13 Q157.43,352 161.55,356.76 Z" fill="#2A8E6A" opacity="0.64"></path><line x1="161.55" y1="356.76" x2="143.2" y2="358.13" stroke="#1A6B50" stroke-width="0.7" opacity="0.5"></line><path d="M156.05,334.51 Q164.82,330.66 171.91,327.53 Q157.36,328.91 156.05,334.51 Z" fill="#2A8E6A" opacity="0.62"></path><line x1="156.05" y1="334.51" x2="171.91" y2="327.53" stroke="#1A6B50" stroke-width="0.7" opacity="0.5"></line><path d="M156.05,334.51 Q146.49,335.03 138.76,335.48 Q152.36,330.1 156.05,334.51 Z" fill="#2A8E6A" opacity="0.5"></path><line x1="156.05" y1="334.51" x2="138.76" y2="335.48" stroke="#1A6B50" stroke-width="0.7" opacity="0.5"></line><path d="M150.96,312.32 Q158.22,309.28 165.06,306.82 Q152.11,307.74 150.96,312.32 Z" fill="#2A8E6A" opacity="0.82"></path><line x1="150.96" y1="312.32" x2="165.06" y2="306.82" stroke="#1A6B50" stroke-width="0.7" opacity="0.5"></line><path d="M150.96,312.32 Q143.09,312.61 135.77,312.87 Q147.99,308.65 150.96,312.32 Z" fill="#2A8E6A" opacity="0.74"></path><line x1="150.96" y1="312.32" x2="135.77" y2="312.87" stroke="#1A6B50" stroke-width="0.7" opacity="0.5"></line><path d="M146.3,290.19 Q153.99,287.13 160.77,284.65 Q147.6,285.39 146.3,290.19 Z" fill="#2A8E6A" opacity="0.74"></path><line x1="146.3" y1="290.19" x2="160.77" y2="284.65" stroke="#1A6B50" stroke-width="0.7" opacity="0.5"></line><path d="M146.3,290.19 Q138.02,290.34 130.77,290.49 Q143.24,286.27 146.3,290.19 Z" fill="#2A8E6A" opacity="0.6"></path><line x1="146.3" y1="290.19" x2="130.77" y2="290.49" stroke="#1A6B50" stroke-width="0.7" opacity="0.5"></line><path d="M142.08,268.09 Q148.79,265.58 153.86,263.54 Q143.29,263.97 142.08,268.09 Z" fill="#2A8E6A" opacity="0.66"></path><line x1="142.08" y1="268.09" x2="153.86" y2="263.54" stroke="#1A6B50" stroke-width="0.7" opacity="0.5"></line><path d="M142.08,268.09 Q134.91,268.09 129.47,268.11 Q139.5,264.65 142.08,268.09 Z" fill="#2A8E6A" opacity="0.69"></path><line x1="142.08" y1="268.09" x2="129.47" y2="268.11" stroke="#1A6B50" stroke-width="0.7" opacity="0.5"></line><path d="M138.32,246.04 Q144.38,243.91 148.53,242.19 Q139.48,242.37 138.32,246.04 Z" fill="#2A8E6A" opacity="0.71"></path><line x1="138.32" y1="246.04" x2="148.53" y2="242.19" stroke="#1A6B50" stroke-width="0.7" opacity="0.5"></line><path d="M138.32,246.04 Q131.9,245.9 127.46,245.81 Q136.08,242.91 138.32,246.04 Z" fill="#2A8E6A" opacity="0.55"></path><line x1="138.32" y1="246.04" x2="127.46" y2="245.81" stroke="#1A6B50" stroke-width="0.7" opacity="0.5"></line><path d="M135.04,224.01 Q140.57,222.2 144.79,220.74 Q136.16,220.7 135.04,224.01 Z" fill="#2A8E6A" opacity="0.61"></path><line x1="135.04" y1="224.01" x2="144.79" y2="220.74" stroke="#1A6B50" stroke-width="0.7" opacity="0.5"></line><path d="M135.04,224.01 Q129.23,223.76 124.78,223.58 Q133.07,221.13 135.04,224.01 Z" fill="#2A8E6A" opacity="0.52"></path><line x1="135.04" y1="224.01" x2="124.78" y2="223.58" stroke="#1A6B50" stroke-width="0.7" opacity="0.5"></line><path d="M132.26,202 Q137.75,200.34 142.33,199 Q133.44,198.77 132.26,202 Z" fill="#2A8E6A" opacity="0.58"></path><line x1="132.26" y1="202" x2="142.33" y2="199" stroke="#1A6B50" stroke-width="0.7" opacity="0.5"></line><path d="M132.26,202 Q126.54,201.63 121.78,201.34 Q130.38,199.12 132.26,202 Z" fill="#2A8E6A" opacity="0.8"></path><line x1="132.26" y1="202" x2="121.78" y2="201.34" stroke="#1A6B50" stroke-width="0.7" opacity="0.5"></line><path d="M210,515 C240,390 260,270 270,160" stroke="#2A8E6A" stroke-width="2" fill="none" stroke-linecap="round"></path><path d="M216.28,488.29 Q229.83,488.92 241.27,489.47 Q221.46,482.01 216.28,488.29 Z" fill="#3AA87C" opacity="0.61"></path><line x1="216.28" y1="488.29" x2="241.27" y2="489.47" stroke="#2A8E6A" stroke-width="0.7" opacity="0.5"></line><path d="M216.28,488.29 Q203.81,482.94 193.24,478.6 Q214.36,480.38 216.28,488.29 Z" fill="#3AA87C" opacity="0.66"></path><line x1="216.28" y1="488.29" x2="193.24" y2="478.6" stroke="#2A8E6A" stroke-width="0.7" opacity="0.5"></line><path d="M222.24,461.75 Q236.83,462.28 248.19,462.76 Q227.75,454.94 222.24,461.75 Z" fill="#3AA87C" opacity="0.76"></path><line x1="222.24" y1="461.75" x2="248.19" y2="462.76" stroke="#2A8E6A" stroke-width="0.7" opacity="0.5"></line><path d="M222.24,461.75 Q208.79,456.12 198.32,451.56 Q220.1,453.26 222.24,461.75 Z" fill="#3AA87C" opacity="0.62"></path><line x1="222.24" y1="461.75" x2="198.32" y2="451.56" stroke="#2A8E6A" stroke-width="0.7" opacity="0.5"></line><path d="M227.91,435.38 Q240.02,435.71 250.36,436.01 Q232.42,429.69 227.91,435.38 Z" fill="#3AA87C" opacity="0.6"></path><line x1="227.91" y1="435.38" x2="250.36" y2="436.01" stroke="#2A8E6A" stroke-width="0.7" opacity="0.5"></line><path d="M227.91,435.38 Q216.69,430.81 207.06,427.12 Q226.06,428.35 227.91,435.38 Z" fill="#3AA87C" opacity="0.74"></path><line x1="227.91" y1="435.38" x2="207.06" y2="427.12" stroke="#2A8E6A" stroke-width="0.7" opacity="0.5"></line><path d="M233.27,409.2 Q245.66,409.41 255.06,409.62 Q237.83,403.33 233.27,409.2 Z" fill="#3AA87C" opacity="0.56"></path><line x1="233.27" y1="409.2" x2="255.06" y2="409.62" stroke="#2A8E6A" stroke-width="0.7" opacity="0.5"></line><path d="M233.27,409.2 Q221.74,404.64 213.03,400.95 Q231.31,402.03 233.27,409.2 Z" fill="#3AA87C" opacity="0.54"></path><line x1="233.27" y1="409.2" x2="213.03" y2="400.95" stroke="#2A8E6A" stroke-width="0.7" opacity="0.5"></line><path d="M238.32,383.21 Q249.47,383.29 258.37,383.39 Q242.37,377.89 238.32,383.21 Z" fill="#3AA87C" opacity="0.62"></path><line x1="238.32" y1="383.21" x2="258.37" y2="383.39" stroke="#2A8E6A" stroke-width="0.7" opacity="0.5"></line><path d="M238.32,383.21 Q227.91,379.21 219.6,375.97 Q236.49,376.77 238.32,383.21 Z" fill="#3AA87C" opacity="0.65"></path><line x1="238.32" y1="383.21" x2="219.6" y2="375.97" stroke="#2A8E6A" stroke-width="0.7" opacity="0.5"></line><path d="M243.06,357.43 Q253.16,357.41 260.71,357.41 Q246.68,352.58 243.06,357.43 Z" fill="#3AA87C" opacity="0.85"></path><line x1="243.06" y1="357.43" x2="260.71" y2="357.41" stroke="#2A8E6A" stroke-width="0.7" opacity="0.5"></line><path d="M243.06,357.43 Q233.6,353.91 226.56,351.05 Q241.35,351.62 243.06,357.43 Z" fill="#3AA87C" opacity="0.6"></path><line x1="243.06" y1="357.43" x2="226.56" y2="351.05" stroke="#2A8E6A" stroke-width="0.7" opacity="0.5"></line><path d="M247.5,331.88 Q257.4,331.75 265.07,331.67 Q251,327.08 247.5,331.88 Z" fill="#3AA87C" opacity="0.75"></path><line x1="247.5" y1="331.88" x2="265.07" y2="331.67" stroke="#2A8E6A" stroke-width="0.7" opacity="0.5"></line><path d="M247.5,331.88 Q238.19,328.51 230.99,325.79 Q245.76,326.19 247.5,331.88 Z" fill="#3AA87C" opacity="0.77"></path><line x1="247.5" y1="331.88" x2="230.99" y2="325.79" stroke="#2A8E6A" stroke-width="0.7" opacity="0.5"></line><path d="M251.63,306.55 Q260.12,306.35 266.95,306.21 Q254.59,302.4 251.63,306.55 Z" fill="#3AA87C" opacity="0.83"></path><line x1="251.63" y1="306.55" x2="266.95" y2="306.21" stroke="#2A8E6A" stroke-width="0.7" opacity="0.5"></line><path d="M251.63,306.55 Q243.62,303.74 237.17,301.48 Q250.09,301.69 251.63,306.55 Z" fill="#3AA87C" opacity="0.64"></path><line x1="251.63" y1="306.55" x2="237.17" y2="301.48" stroke="#2A8E6A" stroke-width="0.7" opacity="0.5"></line><path d="M255.46,281.46 Q264.16,281.16 270.94,280.95 Q258.45,277.18 255.46,281.46 Z" fill="#3AA87C" opacity="0.79"></path><line x1="255.46" y1="281.46" x2="270.94" y2="280.95" stroke="#2A8E6A" stroke-width="0.7" opacity="0.5"></line><path d="M255.46,281.46 Q247.22,278.67 240.79,276.42 Q253.83,276.5 255.46,281.46 Z" fill="#3AA87C" opacity="0.76"></path><line x1="255.46" y1="281.46" x2="240.79" y2="276.42" stroke="#2A8E6A" stroke-width="0.7" opacity="0.5"></line><path d="M258.98,256.62 Q266.44,256.29 272.65,256.04 Q261.51,252.92 258.98,256.62 Z" fill="#3AA87C" opacity="0.8"></path><line x1="258.98" y1="256.62" x2="272.65" y2="256.04" stroke="#2A8E6A" stroke-width="0.7" opacity="0.5"></line><path d="M258.98,256.62 Q251.88,254.3 245.96,252.43 Q257.53,252.37 258.98,256.62 Z" fill="#3AA87C" opacity="0.66"></path><line x1="258.98" y1="256.62" x2="245.96" y2="252.43" stroke="#2A8E6A" stroke-width="0.7" opacity="0.5"></line><path d="M262.19,232.04 Q268.21,231.71 272.84,231.46 Q264.2,229.04 262.19,232.04 Z" fill="#3AA87C" opacity="0.64"></path><line x1="262.19" y1="232.04" x2="272.84" y2="231.46" stroke="#2A8E6A" stroke-width="0.7" opacity="0.5"></line><path d="M262.19,232.04 Q256.45,230.24 252.03,228.78 Q260.99,228.64 262.19,232.04 Z" fill="#3AA87C" opacity="0.63"></path><line x1="262.19" y1="232.04" x2="252.03" y2="228.78" stroke="#2A8E6A" stroke-width="0.7" opacity="0.5"></line><path d="M265.1,207.74 Q270.74,207.37 275.63,207.08 Q266.95,204.9 265.1,207.74 Z" fill="#3AA87C" opacity="0.57"></path><line x1="265.1" y1="207.74" x2="275.63" y2="207.08" stroke="#2A8E6A" stroke-width="0.7" opacity="0.5"></line><path d="M265.1,207.74 Q259.69,206.11 254.99,204.79 Q263.94,204.55 265.1,207.74 Z" fill="#3AA87C" opacity="0.65"></path><line x1="265.1" y1="207.74" x2="254.99" y2="204.79" stroke="#2A8E6A" stroke-width="0.7" opacity="0.5"></line><path d="M267.7,183.72 Q272.46,183.35 275.46,183.07 Q269.24,181.31 267.7,183.72 Z" fill="#3AA87C" opacity="0.76"></path><line x1="267.7" y1="183.72" x2="275.46" y2="183.07" stroke="#2A8E6A" stroke-width="0.7" opacity="0.5"></line><path d="M267.7,183.72 Q263.13,182.4 260.26,181.33 Q266.69,181.05 267.7,183.72 Z" fill="#3AA87C" opacity="0.62"></path><line x1="267.7" y1="183.72" x2="260.26" y2="181.33" stroke="#2A8E6A" stroke-width="0.7" opacity="0.5"></line><path d="M210,515 C150,420 110,330 80,240" stroke="#1A6B50" stroke-width="1.8" fill="none" stroke-linecap="round"></path><path d="M196.5,493.16 Q205.88,484.88 214.36,478.14 Q195.9,485.68 196.5,493.16 Z" fill="#2A8E6A" opacity="0.59"></path><line x1="196.5" y1="493.16" x2="214.36" y2="478.14" stroke="#1A6B50" stroke-width="0.7" opacity="0.5"></line><path d="M196.5,493.16 Q184.81,497.62 174.48,501.29 Q190.16,489.15 196.5,493.16 Z" fill="#2A8E6A" opacity="0.63"></path><line x1="196.5" y1="493.16" x2="174.48" y2="501.29" stroke="#1A6B50" stroke-width="0.7" opacity="0.5"></line><path d="M183.69,471.49 Q192.33,464.15 199.26,458.18 Q183.28,464.7 183.69,471.49 Z" fill="#2A8E6A" opacity="0.62"></path><line x1="183.69" y1="471.49" x2="199.26" y2="458.18" stroke="#1A6B50" stroke-width="0.7" opacity="0.5"></line><path d="M183.69,471.49 Q173.02,475.32 164.47,478.48 Q178.01,467.75 183.69,471.49 Z" fill="#2A8E6A" opacity="0.61"></path><line x1="183.69" y1="471.49" x2="164.47" y2="478.48" stroke="#1A6B50" stroke-width="0.7" opacity="0.5"></line><path d="M171.53,449.97 Q180.64,442.54 188.89,436.5 Q171.25,442.92 171.53,449.97 Z" fill="#2A8E6A" opacity="0.56"></path><line x1="171.53" y1="449.97" x2="188.89" y2="436.5" stroke="#1A6B50" stroke-width="0.7" opacity="0.5"></line><path d="M171.53,449.97 Q160.4,453.71 150.52,456.81 Q165.73,445.97 171.53,449.97 Z" fill="#2A8E6A" opacity="0.64"></path><line x1="171.53" y1="449.97" x2="150.52" y2="456.81" stroke="#1A6B50" stroke-width="0.7" opacity="0.5"></line><path d="M160,428.58 Q168.86,421.65 176.18,416 Q159.86,421.83 160,428.58 Z" fill="#2A8E6A" opacity="0.59"></path><line x1="160" y1="428.58" x2="176.18" y2="416" stroke="#1A6B50" stroke-width="0.7" opacity="0.5"></line><path d="M160,428.58 Q149.27,431.96 140.45,434.75 Q154.52,424.65 160,428.58 Z" fill="#2A8E6A" opacity="0.62"></path><line x1="160" y1="428.58" x2="140.45" y2="434.75" stroke="#1A6B50" stroke-width="0.7" opacity="0.5"></line><path d="M149.08,407.32 Q156.14,402.01 162.49,397.69 Q149.07,402.02 149.08,407.32 Z" fill="#2A8E6A" opacity="0.67"></path><line x1="149.08" y1="407.32" x2="162.49" y2="397.69" stroke="#1A6B50" stroke-width="0.7" opacity="0.5"></line><path d="M149.08,407.32 Q140.6,409.8 133.11,411.86 Q144.83,404.14 149.08,407.32 Z" fill="#2A8E6A" opacity="0.52"></path><line x1="149.08" y1="407.32" x2="133.11" y2="411.86" stroke="#1A6B50" stroke-width="0.7" opacity="0.5"></line><path d="M138.72,386.17 Q146.15,380.8 151.95,376.43 Q138.82,380.67 138.72,386.17 Z" fill="#2A8E6A" opacity="0.63"></path><line x1="138.72" y1="386.17" x2="151.95" y2="376.43" stroke="#1A6B50" stroke-width="0.7" opacity="0.5"></line><path d="M138.72,386.17 Q129.87,388.57 122.94,390.57 Q134.38,382.79 138.72,386.17 Z" fill="#2A8E6A" opacity="0.62"></path><line x1="138.72" y1="386.17" x2="122.94" y2="390.57" stroke="#1A6B50" stroke-width="0.7" opacity="0.5"></line><path d="M128.91,365.11 Q135.36,360.64 140.86,357 Q129.09,360.4 128.91,365.11 Z" fill="#2A8E6A" opacity="0.61"></path><line x1="128.91" y1="365.11" x2="140.86" y2="357" stroke="#1A6B50" stroke-width="0.7" opacity="0.5"></line><path d="M128.91,365.11 Q121.3,367.02 114.87,368.61 Q125.25,362.14 128.91,365.11 Z" fill="#2A8E6A" opacity="0.59"></path><line x1="128.91" y1="365.11" x2="114.87" y2="368.61" stroke="#1A6B50" stroke-width="0.7" opacity="0.5"></line><path d="M119.62,344.13 Q126.57,339.5 131.72,335.74 Q119.9,339.13 119.62,344.13 Z" fill="#2A8E6A" opacity="0.75"></path><line x1="119.62" y1="344.13" x2="131.72" y2="335.74" stroke="#1A6B50" stroke-width="0.7" opacity="0.5"></line><path d="M119.62,344.13 Q111.49,346.02 105.39,347.58 Q115.79,340.9 119.62,344.13 Z" fill="#2A8E6A" opacity="0.65"></path><line x1="119.62" y1="344.13" x2="105.39" y2="347.58" stroke="#1A6B50" stroke-width="0.7" opacity="0.5"></line><path d="M110.82,323.22 Q116.88,319.35 121.17,316.2 Q111.14,318.92 110.82,323.22 Z" fill="#2A8E6A" opacity="0.66"></path><line x1="110.82" y1="323.22" x2="121.17" y2="316.2" stroke="#1A6B50" stroke-width="0.7" opacity="0.5"></line><path d="M110.82,323.22 Q103.79,324.72 98.72,325.96 Q107.58,320.39 110.82,323.22 Z" fill="#2A8E6A" opacity="0.57"></path><line x1="110.82" y1="323.22" x2="98.72" y2="325.96" stroke="#1A6B50" stroke-width="0.7" opacity="0.5"></line><path d="M102.49,302.37 Q107.34,299.39 110.72,296.96 Q102.8,298.97 102.49,302.37 Z" fill="#2A8E6A" opacity="0.84"></path><line x1="102.49" y1="302.37" x2="110.72" y2="296.96" stroke="#1A6B50" stroke-width="0.7" opacity="0.5"></line><path d="M102.49,302.37 Q96.9,303.45 92.93,304.36 Q99.96,300.07 102.49,302.37 Z" fill="#2A8E6A" opacity="0.72"></path><line x1="102.49" y1="302.37" x2="92.93" y2="304.36" stroke="#1A6B50" stroke-width="0.7" opacity="0.5"></line><path d="M94.59,281.56 Q99.2,278.83 103.01,276.62 Q94.94,278.36 94.59,281.56 Z" fill="#2A8E6A" opacity="0.7"></path><line x1="94.59" y1="281.56" x2="103.01" y2="276.62" stroke="#1A6B50" stroke-width="0.7" opacity="0.5"></line><path d="M94.59,281.56 Q89.32,282.48 84.98,283.26 Q92.25,279.36 94.59,281.56 Z" fill="#2A8E6A" opacity="0.61"></path><line x1="94.59" y1="281.56" x2="84.98" y2="283.26" stroke="#1A6B50" stroke-width="0.7" opacity="0.5"></line><path d="M87.11,260.77 Q90.82,258.66 93.67,256.94 Q87.43,258.23 87.11,260.77 Z" fill="#2A8E6A" opacity="0.67"></path><line x1="87.11" y1="260.77" x2="93.67" y2="256.94" stroke="#1A6B50" stroke-width="0.7" opacity="0.5"></line><path d="M87.11,260.77 Q82.88,261.44 79.63,262.01 Q85.26,258.99 87.11,260.77 Z" fill="#2A8E6A" opacity="0.63"></path><line x1="87.11" y1="260.77" x2="79.63" y2="262.01" stroke="#1A6B50" stroke-width="0.7" opacity="0.5"></line><path d="M210,515 C260,430 300,350 330,270" stroke="#1A6B50" stroke-width="1.8" fill="none" stroke-linecap="round"></path><path d="M222.29,493.85 Q232.72,497.55 240.97,500.62 Q227.82,490.18 222.29,493.85 Z" fill="#22956A" opacity="0.58"></path><line x1="222.29" y1="493.85" x2="240.97" y2="500.62" stroke="#1A6B50" stroke-width="0.7" opacity="0.5"></line><path d="M222.29,493.85 Q213.83,486.71 207.16,480.91 Q222.67,487.22 222.29,493.85 Z" fill="#22956A" opacity="0.72"></path><line x1="222.29" y1="493.85" x2="207.16" y2="480.91" stroke="#1A6B50" stroke-width="0.7" opacity="0.5"></line><path d="M234.17,472.89 Q244.18,476.32 251.48,479.16 Q239.42,469.32 234.17,472.89 Z" fill="#22956A" opacity="0.66"></path><line x1="234.17" y1="472.89" x2="251.48" y2="479.16" stroke="#1A6B50" stroke-width="0.7" opacity="0.5"></line><path d="M234.17,472.89 Q226,466.16 220.18,460.68 Q234.46,466.55 234.17,472.89 Z" fill="#22956A" opacity="0.66"></path><line x1="234.17" y1="472.89" x2="220.18" y2="460.68" stroke="#1A6B50" stroke-width="0.7" opacity="0.5"></line><path d="M245.63,452.11 Q254.5,455.03 262.41,457.44 Q250.22,448.9 245.63,452.11 Z" fill="#22956A" opacity="0.82"></path><line x1="245.63" y1="452.11" x2="262.41" y2="457.44" stroke="#1A6B50" stroke-width="0.7" opacity="0.5"></line><path d="M245.63,452.11 Q238.35,446.25 231.72,441.49 Q245.82,446.51 245.63,452.11 Z" fill="#22956A" opacity="0.79"></path><line x1="245.63" y1="452.11" x2="231.72" y2="441.49" stroke="#1A6B50" stroke-width="0.7" opacity="0.5"></line><path d="M256.67,431.48 Q266.21,434.49 273.53,436.98 Q261.55,427.98 256.67,431.48 Z" fill="#22956A" opacity="0.7"></path><line x1="256.67" y1="431.48" x2="273.53" y2="436.98" stroke="#1A6B50" stroke-width="0.7" opacity="0.5"></line><path d="M256.67,431.48 Q248.79,425.31 242.81,420.28 Q256.8,425.48 256.67,431.48 Z" fill="#22956A" opacity="0.56"></path><line x1="256.67" y1="431.48" x2="242.81" y2="420.28" stroke="#1A6B50" stroke-width="0.7" opacity="0.5"></line><path d="M267.29,410.99 Q276.27,413.69 284.17,415.92 Q271.82,407.65 267.29,410.99 Z" fill="#22956A" opacity="0.85"></path><line x1="267.29" y1="410.99" x2="284.17" y2="415.92" stroke="#1A6B50" stroke-width="0.7" opacity="0.5"></line><path d="M267.29,410.99 Q259.84,405.31 253.16,400.68 Q267.34,405.37 267.29,410.99 Z" fill="#22956A" opacity="0.6"></path><line x1="267.29" y1="410.99" x2="253.16" y2="400.68" stroke="#1A6B50" stroke-width="0.7" opacity="0.5"></line><path d="M277.5,390.63 Q285.3,392.85 291.99,394.69 Q281.38,387.68 277.5,390.63 Z" fill="#22956A" opacity="0.82"></path><line x1="277.5" y1="390.63" x2="291.99" y2="394.69" stroke="#1A6B50" stroke-width="0.7" opacity="0.5"></line><path d="M277.5,390.63 Q270.98,385.8 265.32,381.87 Q277.47,385.76 277.5,390.63 Z" fill="#22956A" opacity="0.54"></path><line x1="277.5" y1="390.63" x2="265.32" y2="381.87" stroke="#1A6B50" stroke-width="0.7" opacity="0.5"></line><path d="M287.29,370.36 Q294.48,372.29 301.24,373.9 Q290.81,367.61 287.29,370.36 Z" fill="#22956A" opacity="0.84"></path><line x1="287.29" y1="370.36" x2="301.24" y2="373.9" stroke="#1A6B50" stroke-width="0.7" opacity="0.5"></line><path d="M287.29,370.36 Q281.25,366.02 275.4,362.49 Q287.2,365.9 287.29,370.36 Z" fill="#22956A" opacity="0.54"></path><line x1="287.29" y1="370.36" x2="275.4" y2="362.49" stroke="#1A6B50" stroke-width="0.7" opacity="0.5"></line><path d="M296.67,350.19 Q302.67,351.7 306.75,352.96 Q299.56,347.85 296.67,350.19 Z" fill="#22956A" opacity="0.71"></path><line x1="296.67" y1="350.19" x2="306.75" y2="352.96" stroke="#1A6B50" stroke-width="0.7" opacity="0.5"></line><path d="M296.67,350.19 Q291.58,346.65 288.24,343.78 Q296.53,346.47 296.67,350.19 Z" fill="#22956A" opacity="0.55"></path><line x1="296.67" y1="350.19" x2="288.24" y2="343.78" stroke="#1A6B50" stroke-width="0.7" opacity="0.5"></line><path d="M305.63,330.08 Q311.14,331.38 315.02,332.45 Q308.23,327.9 305.63,330.08 Z" fill="#22956A" opacity="0.79"></path><line x1="305.63" y1="330.08" x2="315.02" y2="332.45" stroke="#1A6B50" stroke-width="0.7" opacity="0.5"></line><path d="M305.63,330.08 Q300.92,326.92 297.68,324.36 Q305.45,326.68 305.63,330.08 Z" fill="#22956A" opacity="0.58"></path><line x1="305.63" y1="330.08" x2="297.68" y2="324.36" stroke="#1A6B50" stroke-width="0.7" opacity="0.5"></line><path d="M314.17,310.02 Q318.65,311 322.01,311.81 Q316.25,308.22 314.17,310.02 Z" fill="#22956A" opacity="0.77"></path><line x1="314.17" y1="310.02" x2="322.01" y2="311.81" stroke="#1A6B50" stroke-width="0.7" opacity="0.5"></line><path d="M314.17,310.02 Q310.32,307.53 307.45,305.51 Q313.98,307.28 314.17,310.02 Z" fill="#22956A" opacity="0.62"></path><line x1="314.17" y1="310.02" x2="307.45" y2="305.51" stroke="#1A6B50" stroke-width="0.7" opacity="0.5"></line><path d="M322.29,290 Q326.84,290.91 330.7,291.67 Q324.37,288.15 322.29,290 Z" fill="#22956A" opacity="0.69"></path><line x1="322.29" y1="290" x2="330.7" y2="291.67" stroke="#1A6B50" stroke-width="0.7" opacity="0.5"></line><path d="M322.29,290 Q318.35,287.55 314.99,285.56 Q322.05,287.23 322.29,290 Z" fill="#22956A" opacity="0.69"></path><line x1="322.29" y1="290" x2="314.99" y2="285.56" stroke="#1A6B50" stroke-width="0.7" opacity="0.5"></line><path d="M210,515 C175,450 140,390 100,330" stroke="#2A8E6A" stroke-width="1.5" fill="none" stroke-linecap="round"></path><path d="M200.45,497.39 Q208.53,490.86 215.14,485.54 Q200.22,491.16 200.45,497.39 Z" fill="#3AA87C" opacity="0.69"></path><line x1="200.45" y1="497.39" x2="215.14" y2="485.54" stroke="#2A8E6A" stroke-width="0.7" opacity="0.5"></line><path d="M200.45,497.39 Q190.59,500.66 182.55,503.37 Q195.33,493.84 200.45,497.39 Z" fill="#3AA87C" opacity="0.53"></path><line x1="200.45" y1="497.39" x2="182.55" y2="503.37" stroke="#2A8E6A" stroke-width="0.7" opacity="0.5"></line><path d="M190.88,480.01 Q198.05,474.13 203.31,469.35 Q190.64,474.45 190.88,480.01 Z" fill="#3AA87C" opacity="0.72"></path><line x1="190.88" y1="480.01" x2="203.31" y2="469.35" stroke="#2A8E6A" stroke-width="0.7" opacity="0.5"></line><path d="M190.88,480.01 Q182.09,482.99 175.55,485.45 Q186.29,476.87 190.88,480.01 Z" fill="#3AA87C" opacity="0.68"></path><line x1="190.88" y1="480.01" x2="175.55" y2="485.45" stroke="#2A8E6A" stroke-width="0.7" opacity="0.5"></line><path d="M181.26,462.83 Q187.25,457.85 191.96,453.8 Q181.03,458.17 181.26,462.83 Z" fill="#3AA87C" opacity="0.62"></path><line x1="181.26" y1="462.83" x2="191.96" y2="453.8" stroke="#2A8E6A" stroke-width="0.7" opacity="0.5"></line><path d="M181.26,462.83 Q173.91,465.39 168.1,467.5 Q177.39,460.22 181.26,462.83 Z" fill="#3AA87C" opacity="0.74"></path><line x1="181.26" y1="462.83" x2="168.1" y2="467.5" stroke="#2A8E6A" stroke-width="0.7" opacity="0.5"></line><path d="M171.58,445.83 Q177.23,441.06 182.13,437.18 Q171.32,441.4 171.58,445.83 Z" fill="#3AA87C" opacity="0.7"></path><line x1="171.58" y1="445.83" x2="182.13" y2="437.18" stroke="#2A8E6A" stroke-width="0.7" opacity="0.5"></line><path d="M171.58,445.83 Q164.61,448.31 158.65,450.36 Q167.88,443.38 171.58,445.83 Z" fill="#3AA87C" opacity="0.52"></path><line x1="171.58" y1="445.83" x2="158.65" y2="450.36" stroke="#2A8E6A" stroke-width="0.7" opacity="0.5"></line><path d="M161.8,428.99 Q167.1,424.44 171.75,420.74 Q161.53,424.81 161.8,428.99 Z" fill="#3AA87C" opacity="0.6"></path><line x1="161.8" y1="428.99" x2="171.75" y2="420.74" stroke="#2A8E6A" stroke-width="0.7" opacity="0.5"></line><path d="M161.8,428.99 Q155.25,431.39 149.58,433.37 Q158.29,426.71 161.8,428.99 Z" fill="#3AA87C" opacity="0.74"></path><line x1="161.8" y1="428.99" x2="149.58" y2="433.37" stroke="#2A8E6A" stroke-width="0.7" opacity="0.5"></line><path d="M151.92,412.29 Q156.2,408.54 158.9,405.49 Q151.66,408.88 151.92,412.29 Z" fill="#3AA87C" opacity="0.69"></path><line x1="151.92" y1="412.29" x2="158.9" y2="405.49" stroke="#2A8E6A" stroke-width="0.7" opacity="0.5"></line><path d="M151.92,412.29 Q146.59,414.29 143.05,415.94 Q149.04,410.45 151.92,412.29 Z" fill="#3AA87C" opacity="0.72"></path><line x1="151.92" y1="412.29" x2="143.05" y2="415.94" stroke="#2A8E6A" stroke-width="0.7" opacity="0.5"></line><path d="M141.89,395.69 Q146.42,391.66 150.19,388.38 Q141.59,392.07 141.89,395.69 Z" fill="#3AA87C" opacity="0.56"></path><line x1="141.89" y1="395.69" x2="150.19" y2="388.38" stroke="#2A8E6A" stroke-width="0.7" opacity="0.5"></line><path d="M141.89,395.69 Q136.24,397.88 131.56,399.68 Q138.81,393.77 141.89,395.69 Z" fill="#3AA87C" opacity="0.69"></path><line x1="141.89" y1="395.69" x2="131.56" y2="399.68" stroke="#2A8E6A" stroke-width="0.7" opacity="0.5"></line><path d="M131.71,379.19 Q135.16,376.06 137.99,373.51 Q131.45,376.41 131.71,379.19 Z" fill="#3AA87C" opacity="0.66"></path><line x1="131.71" y1="379.19" x2="137.99" y2="373.51" stroke="#2A8E6A" stroke-width="0.7" opacity="0.5"></line><path d="M131.71,379.19 Q127.38,380.91 123.85,382.33 Q129.33,377.73 131.71,379.19 Z" fill="#3AA87C" opacity="0.61"></path><line x1="131.71" y1="379.19" x2="123.85" y2="382.33" stroke="#2A8E6A" stroke-width="0.7" opacity="0.5"></line><path d="M121.35,362.76 Q124.64,359.71 127.96,357.24 Q121.07,360.09 121.35,362.76 Z" fill="#3AA87C" opacity="0.82"></path><line x1="121.35" y1="362.76" x2="127.96" y2="357.24" stroke="#2A8E6A" stroke-width="0.7" opacity="0.5"></line><path d="M121.35,362.76 Q117.21,364.45 113.2,365.85 Q119.05,361.38 121.35,362.76 Z" fill="#3AA87C" opacity="0.67"></path><line x1="121.35" y1="362.76" x2="113.2" y2="365.85" stroke="#2A8E6A" stroke-width="0.7" opacity="0.5"></line><path d="M110.79,346.37 Q113.04,344.24 115.31,342.5 Q110.58,344.52 110.79,346.37 Z" fill="#3AA87C" opacity="0.63"></path><line x1="110.79" y1="346.37" x2="115.31" y2="342.5" stroke="#2A8E6A" stroke-width="0.7" opacity="0.5"></line><path d="M110.79,346.37 Q107.93,347.57 105.17,348.56 Q109.18,345.43 110.79,346.37 Z" fill="#3AA87C" opacity="0.68"></path><line x1="110.79" y1="346.37" x2="105.17" y2="348.56" stroke="#2A8E6A" stroke-width="0.7" opacity="0.5"></line><path d="M210,515 C245,460 280,410 320,365" stroke="#1A6B50" stroke-width="1.5" fill="none" stroke-linecap="round"></path><path d="M219.55,500.12 Q226.81,503.15 232.68,505.65 Q223.62,497.73 219.55,500.12 Z" fill="#2A8E6A" opacity="0.74"></path><line x1="219.55" y1="500.12" x2="232.68" y2="505.65" stroke="#1A6B50" stroke-width="0.7" opacity="0.5"></line><path d="M219.55,500.12 Q213.82,494.74 209.17,490.35 Q220.07,495.43 219.55,500.12 Z" fill="#2A8E6A" opacity="0.76"></path><line x1="219.55" y1="500.12" x2="209.17" y2="490.35" stroke="#1A6B50" stroke-width="0.7" opacity="0.5"></line><path d="M229.12,485.5 Q236.42,488.62 243.06,491.19 Q233.25,483.12 229.12,485.5 Z" fill="#2A8E6A" opacity="0.84"></path><line x1="229.12" y1="485.5" x2="243.06" y2="491.19" stroke="#1A6B50" stroke-width="0.7" opacity="0.5"></line><path d="M229.12,485.5 Q223.39,480.01 218,475.54 Q229.69,480.77 229.12,485.5 Z" fill="#2A8E6A" opacity="0.64"></path><line x1="229.12" y1="485.5" x2="218" y2="475.54" stroke="#1A6B50" stroke-width="0.7" opacity="0.5"></line><path d="M238.74,471.12 Q245.69,474.18 252.07,476.71 Q242.71,468.88 238.74,471.12 Z" fill="#2A8E6A" opacity="0.56"></path><line x1="238.74" y1="471.12" x2="252.07" y2="476.71" stroke="#1A6B50" stroke-width="0.7" opacity="0.5"></line><path d="M238.74,471.12 Q233.31,465.8 228.15,461.47 Q239.33,466.59 238.74,471.12 Z" fill="#2A8E6A" opacity="0.51"></path><line x1="238.74" y1="471.12" x2="228.15" y2="461.47" stroke="#1A6B50" stroke-width="0.7" opacity="0.5"></line><path d="M248.42,456.98 Q254.78,459.88 260.05,462.26 Q252.1,454.97 248.42,456.98 Z" fill="#2A8E6A" opacity="0.67"></path><line x1="248.42" y1="456.98" x2="260.05" y2="462.26" stroke="#1A6B50" stroke-width="0.7" opacity="0.5"></line><path d="M248.42,456.98 Q243.49,452.04 239.36,448.01 Q249.02,452.84 248.42,456.98 Z" fill="#2A8E6A" opacity="0.66"></path><line x1="248.42" y1="456.98" x2="239.36" y2="448.01" stroke="#1A6B50" stroke-width="0.7" opacity="0.5"></line><path d="M258.2,443.1 Q264.21,445.93 269.27,448.27 Q261.72,441.23 258.2,443.1 Z" fill="#2A8E6A" opacity="0.74"></path><line x1="258.2" y1="443.1" x2="269.27" y2="448.27" stroke="#1A6B50" stroke-width="0.7" opacity="0.5"></line><path d="M258.2,443.1 Q253.57,438.33 249.62,434.45 Q258.82,439.16 258.2,443.1 Z" fill="#2A8E6A" opacity="0.54"></path><line x1="258.2" y1="443.1" x2="249.62" y2="434.45" stroke="#1A6B50" stroke-width="0.7" opacity="0.5"></line><path d="M268.08,429.46 Q273.61,432.17 278.67,434.39 Q271.37,427.78 268.08,429.46 Z" fill="#2A8E6A" opacity="0.84"></path><line x1="268.08" y1="429.46" x2="278.67" y2="434.39" stroke="#1A6B50" stroke-width="0.7" opacity="0.5"></line><path d="M268.08,429.46 Q263.86,424.99 259.85,421.34 Q268.71,425.83 268.08,429.46 Z" fill="#2A8E6A" opacity="0.63"></path><line x1="268.08" y1="429.46" x2="259.85" y2="421.34" stroke="#1A6B50" stroke-width="0.7" opacity="0.5"></line><path d="M278.11,416.07 Q282.24,418.18 285.51,419.91 Q280.61,414.85 278.11,416.07 Z" fill="#2A8E6A" opacity="0.84"></path><line x1="278.11" y1="416.07" x2="285.51" y2="419.91" stroke="#1A6B50" stroke-width="0.7" opacity="0.5"></line><path d="M278.11,416.07 Q274.98,412.65 272.51,409.86 Q278.62,413.34 278.11,416.07 Z" fill="#2A8E6A" opacity="0.79"></path><line x1="278.11" y1="416.07" x2="272.51" y2="409.86" stroke="#1A6B50" stroke-width="0.7" opacity="0.5"></line><path d="M288.29,402.93 Q292.19,405.01 295.08,406.72 Q290.69,401.81 288.29,402.93 Z" fill="#2A8E6A" opacity="0.85"></path><line x1="288.29" y1="402.93" x2="295.08" y2="406.72" stroke="#1A6B50" stroke-width="0.7" opacity="0.5"></line><path d="M288.29,402.93 Q285.36,399.62 283.26,396.92 Q288.83,400.34 288.29,402.93 Z" fill="#2A8E6A" opacity="0.74"></path><line x1="288.29" y1="402.93" x2="283.26" y2="396.92" stroke="#1A6B50" stroke-width="0.7" opacity="0.5"></line><path d="M298.65,390.04 Q301.96,391.88 304.31,393.39 Q300.72,389.11 298.65,390.04 Z" fill="#2A8E6A" opacity="0.57"></path><line x1="298.65" y1="390.04" x2="304.31" y2="393.39" stroke="#1A6B50" stroke-width="0.7" opacity="0.5"></line><path d="M298.65,390.04 Q296.19,387.16 294.53,384.81 Q299.15,387.83 298.65,390.04 Z" fill="#2A8E6A" opacity="0.78"></path><line x1="298.65" y1="390.04" x2="294.53" y2="384.81" stroke="#1A6B50" stroke-width="0.7" opacity="0.5"></line><path d="M309.21,377.4 Q312.14,379.1 315.29,380.49 Q311.08,376.6 309.21,377.4 Z" fill="#2A8E6A" opacity="0.77"></path><line x1="309.21" y1="377.4" x2="315.29" y2="380.49" stroke="#1A6B50" stroke-width="0.7" opacity="0.5"></line><path d="M309.21,377.4 Q307.07,374.78 304.55,372.64 Q309.7,375.43 309.21,377.4 Z" fill="#2A8E6A" opacity="0.76"></path><line x1="309.21" y1="377.4" x2="304.55" y2="372.64" stroke="#1A6B50" stroke-width="0.7" opacity="0.5"></line><path d="M210,515 C200,460 195,415 192,375" stroke="#145E3C" stroke-width="1.6" fill="none" stroke-linecap="round"></path><path d="M207.15,498.8 Q216.07,495.55 223.33,492.93 Q208.8,493.34 207.15,498.8 Z" fill="#1A6B50" opacity="0.57"></path><line x1="207.15" y1="498.8" x2="223.33" y2="492.93" stroke="#145E3C" stroke-width="0.7" opacity="0.5"></line><path d="M207.15,498.8 Q197.65,498.69 189.93,498.63 Q203.78,494.2 207.15,498.8 Z" fill="#1A6B50" opacity="0.59"></path><line x1="207.15" y1="498.8" x2="189.93" y2="498.63" stroke="#145E3C" stroke-width="0.7" opacity="0.5"></line><path d="M204.58,483.16 Q213.07,480.18 219.89,477.78 Q206.2,478.01 204.58,483.16 Z" fill="#1A6B50" opacity="0.77"></path><line x1="204.58" y1="483.16" x2="219.89" y2="477.78" stroke="#145E3C" stroke-width="0.7" opacity="0.5"></line><path d="M204.58,483.16 Q195.58,482.96 188.36,482.82 Q201.44,478.77 204.58,483.16 Z" fill="#1A6B50" opacity="0.72"></path><line x1="204.58" y1="483.16" x2="188.36" y2="482.82" stroke="#145E3C" stroke-width="0.7" opacity="0.5"></line><path d="M202.27,468.06 Q210.06,465.43 216.31,463.31 Q203.81,463.38 202.27,468.06 Z" fill="#1A6B50" opacity="0.79"></path><line x1="202.27" y1="468.06" x2="216.31" y2="463.31" stroke="#145E3C" stroke-width="0.7" opacity="0.5"></line><path d="M202.27,468.06 Q194.05,467.79 187.46,467.58 Q199.44,464.02 202.27,468.06 Z" fill="#1A6B50" opacity="0.69"></path><line x1="202.27" y1="468.06" x2="187.46" y2="467.58" stroke="#145E3C" stroke-width="0.7" opacity="0.5"></line><path d="M200.21,453.48 Q207.77,451.02 214.49,449.03 Q201.75,448.97 200.21,453.48 Z" fill="#1A6B50" opacity="0.79"></path><line x1="200.21" y1="453.48" x2="214.49" y2="449.03" stroke="#145E3C" stroke-width="0.7" opacity="0.5"></line><path d="M200.21,453.48 Q192.27,453.12 185.23,452.85 Q197.52,449.54 200.21,453.48 Z" fill="#1A6B50" opacity="0.58"></path><line x1="200.21" y1="453.48" x2="185.23" y2="452.85" stroke="#145E3C" stroke-width="0.7" opacity="0.5"></line><path d="M198.38,439.38 Q204.74,437.38 210.23,435.77 Q199.71,435.6 198.38,439.38 Z" fill="#1A6B50" opacity="0.62"></path><line x1="198.38" y1="439.38" x2="210.23" y2="435.77" stroke="#145E3C" stroke-width="0.7" opacity="0.5"></line><path d="M198.38,439.38 Q191.72,439 185.99,438.72 Q196.16,436.05 198.38,439.38 Z" fill="#1A6B50" opacity="0.61"></path><line x1="198.38" y1="439.38" x2="185.99" y2="438.72" stroke="#145E3C" stroke-width="0.7" opacity="0.5"></line><path d="M196.75,425.72 Q202.46,424 207.35,422.61 Q197.98,422.36 196.75,425.72 Z" fill="#1A6B50" opacity="0.59"></path><line x1="196.75" y1="425.72" x2="207.35" y2="422.61" stroke="#145E3C" stroke-width="0.7" opacity="0.5"></line><path d="M196.75,425.72 Q190.81,425.32 185.72,425.01 Q194.8,422.72 196.75,425.72 Z" fill="#1A6B50" opacity="0.68"></path><line x1="196.75" y1="425.72" x2="185.72" y2="425.01" stroke="#145E3C" stroke-width="0.7" opacity="0.5"></line><path d="M195.32,412.49 Q200.48,410.99 204.03,409.78 Q196.46,409.47 195.32,412.49 Z" fill="#1A6B50" opacity="0.71"></path><line x1="195.32" y1="412.49" x2="204.03" y2="409.78" stroke="#145E3C" stroke-width="0.7" opacity="0.5"></line><path d="M195.32,412.49 Q189.96,412.07 186.26,411.75 Q193.59,409.76 195.32,412.49 Z" fill="#1A6B50" opacity="0.62"></path><line x1="195.32" y1="412.49" x2="186.26" y2="411.75" stroke="#145E3C" stroke-width="0.7" opacity="0.5"></line><path d="M194.06,399.64 Q198.51,398.4 202.93,397.39 Q195.07,397.06 194.06,399.64 Z" fill="#1A6B50" opacity="0.56"></path><line x1="194.06" y1="399.64" x2="202.93" y2="397.39" stroke="#145E3C" stroke-width="0.7" opacity="0.5"></line><path d="M194.06,399.64 Q189.46,399.24 184.92,398.92 Q192.6,397.29 194.06,399.64 Z" fill="#1A6B50" opacity="0.53"></path><line x1="194.06" y1="399.64" x2="184.92" y2="398.92" stroke="#145E3C" stroke-width="0.7" opacity="0.5"></line><path d="M192.96,387.16 Q196.55,386.19 199.83,385.41 Q193.79,385.09 192.96,387.16 Z" fill="#1A6B50" opacity="0.8"></path><line x1="192.96" y1="387.16" x2="199.83" y2="385.41" stroke="#145E3C" stroke-width="0.7" opacity="0.5"></line><path d="M192.96,387.16 Q189.27,386.8 185.89,386.52 Q191.8,385.25 192.96,387.16 Z" fill="#1A6B50" opacity="0.66"></path><line x1="192.96" y1="387.16" x2="185.89" y2="386.52" stroke="#145E3C" stroke-width="0.7" opacity="0.5"></line><path d="M192,367.8 C207.4,367.8 207.4,349.6 192,349.6 C182.2,349.6 182.2,360.8 189.2,360.8 C194.8,360.8 194.8,356.6 192,356.6" fill="none" stroke="#1A6B50" stroke-width="3" stroke-linecap="round"></path><ellipse cx="210" cy="512" rx="18" ry="8" fill="#1A6B50" opacity="0.5"></ellipse></g>
</svg>