<svg xmlns="http://www.w3.org/2000/svg" viewBox="0 0 256 256" role="img" aria-labelledby="title desc">
    <title id="title">Hand click indicator</title>
    <desc id="desc">A friendly hand pointer icon with click rays and a soft Plan For Abroad styled accent.</desc>
    <defs>
        <filter id="handShadow" x="-22%" y="-18%" width="144%" height="148%">
            <feDropShadow dx="0" dy="14" stdDeviation="14" flood-color="#246bfe" flood-opacity="0.16"/>
            <feDropShadow dx="0" dy="4" stdDeviation="4" flood-color="#123044" flood-opacity="0.12"/>
        </filter>
        <linearGradient id="handFill" x1="62" y1="52" x2="196" y2="214" gradientUnits="userSpaceOnUse">
            <stop offset="0" stop-color="#ffffff"/>
            <stop offset="1" stop-color="#f4fbff"/>
        </linearGradient>
        <linearGradient id="accentFill" x1="178" y1="32" x2="226" y2="78" gradientUnits="userSpaceOnUse">
            <stop offset="0" stop-color="#ecfdff"/>
            <stop offset="1" stop-color="#c6f4f8"/>
        </linearGradient>
    </defs>
    <circle cx="130" cy="132" r="100" fill="#eef2ff" opacity="0.66"/>
    <circle cx="130" cy="132" r="78" fill="none" stroke="#7f95ff" stroke-width="4" opacity="0.65"/>
    <g fill="none" stroke="#0e1b24" stroke-linecap="round" stroke-linejoin="round" stroke-width="10">
        <path d="M66 60 43 37"/>
        <path d="M93 46V14"/>
        <path d="M122 56 145 33"/>
        <path d="M55 90H24"/>
        <path d="M75 112 51 136"/>
    </g>
    <g filter="url(#handShadow)">
        <path
                d="M88.5 83.3c-8.2-8.2-8.3-21.2-.2-29.3 8.1-8.1 21.1-8 29.3.2l42.5 42.5c1.3-6.1 4.6-11.1 9.6-14.1 7.7-4.7 17.1-3.3 23.6 3.2l3.8 3.8c5.4-7.4 16.4-8.4 24.5-2.3l4.2 3.2c8.4 6.3 12.1 16.9 9.4 27.1l-12.6 47.8c-3.3 12.6-11.1 23.5-21.9 30.8l-8.1 5.5c-19 12.8-43.7 13.6-63.5 2.2l-47.8-27.6c-9.8-5.7-13.5-18.1-8.3-28.2 5.3-10.2 17.7-14.5 28.1-9.7l17.5 8.1L88.5 83.3Z"
                fill="url(#handFill)"
                stroke="#0e1b24"
                stroke-linecap="round"
                stroke-linejoin="round"
                stroke-width="7"
        />
        <path d="M118 146.6 79 107.5" fill="none" stroke="#0e1b24" stroke-linecap="round" stroke-width="7"/>
        <path d="M160.1 96.7 179 115.6" fill="none" stroke="#0e1b24" stroke-linecap="round" stroke-width="7"/>
        <path d="M197.1 89.6 214 106.5" fill="none" stroke="#0e1b24" stroke-linecap="round" stroke-width="7"/>
        <path d="M145 181.5c17.8 8.7 39 5.3 53.3-8.4" fill="none" stroke="#95a2ad" stroke-linecap="round" stroke-width="3" opacity="0.55"/>
    </g>
    <g transform="translate(178 27)">
        <circle cx="25" cy="25" r="24" fill="url(#accentFill)" stroke="#98dce5" stroke-width="2"/>
        <path d="M25 12v9M25 29v9M12 25h9M29 25h9" fill="none" stroke="#0095a1" stroke-linecap="round" stroke-width="2.8"/>
        <path d="m19 17 12 8-7 2-2 7-3-17Z" fill="#0095a1" stroke="#007886" stroke-linejoin="round" stroke-width="1.4"/>
    </g>
</svg>



