<svg xmlns="http://www.w3.org/2000/svg" viewBox="0 0 256 256" role="img" aria-labelledby="title desc">
  <title id="title">Hand click indicator</title>
  <desc id="desc">A friendly hand pointer icon with click rays and a soft KiwiDream styled accent.</desc>
  <defs>
    <filter id="handShadow" x="-22%" y="-18%" width="144%" height="148%">
      <feDropShadow dx="0" dy="14" stdDeviation="14" flood-color="#0095A1" flood-opacity="0.18"/>
      <feDropShadow dx="0" dy="4" stdDeviation="4" flood-color="#142334" flood-opacity="0.10"/>
    </filter>
    <linearGradient id="handFill" x1="62" y1="52" x2="196" y2="214" gradientUnits="userSpaceOnUse">
      <stop offset="0" stop-color="#ffffff"/>
      <stop offset="1" stop-color="#eaf6f5"/>
    </linearGradient>
  </defs>

  <g filter="url(#handShadow)" transform="rotate(-90 128 128)">
    <path
      d="M88.5 83.3c-8.2-8.2-8.3-21.2-.2-29.3 8.1-8.1 21.1-8 29.3.2l42.5 42.5c1.3-6.1 4.6-11.1 9.6-14.1 7.7-4.7 17.1-3.3 23.6 3.2l3.8 3.8c5.4-7.4 16.4-8.4 24.5-2.3l4.2 3.2c8.4 6.3 12.1 16.9 9.4 27.1l-12.6 47.8c-3.3 12.6-11.1 23.5-21.9 30.8l-8.1 5.5c-19 12.8-43.7 13.6-63.5 2.2l-47.8-27.6c-9.8-5.7-13.5-18.1-8.3-28.2 5.3-10.2 17.7-14.5 28.1-9.7l17.5 8.1L88.5 83.3Z"
      fill="url(#handFill)"
      stroke="#142334"
      stroke-linecap="round"
      stroke-linejoin="round"
      stroke-width="7"
    />
    <path d="M118 146.6 79 107.5" fill="none" stroke="#142334" stroke-linecap="round" stroke-width="7"/>
    <path d="M160.1 96.7 179 115.6" fill="none" stroke="#142334" stroke-linecap="round" stroke-width="7"/>
    <path d="M197.1 89.6 214 106.5" fill="none" stroke="#142334" stroke-linecap="round" stroke-width="7"/>
    <path d="M145 181.5c17.8 8.7 39 5.3 53.3-8.4" fill="none" stroke="#0095A1" stroke-linecap="round" stroke-width="3" opacity="0.65"/>
  </g>
</svg>
