<svg xmlns="http://www.w3.org/2000/svg" viewBox="0 0 520 580" width="520" height="580">
<defs>
  <filter id="sk" x="-6%" y="-6%" width="112%" height="112%">
    <feTurbulence type="turbulence" baseFrequency="0.028" numOctaves="4" seed="9" result="n"></feTurbulence>
    <feDisplacementMap in="SourceGraphic" in2="n" scale="1.8" xChannelSelector="R" yChannelSelector="G"></feDisplacementMap>
  </filter>
  <filter id="wc" x="-8%" y="-8%" width="116%" height="116%">
    <feTurbulence type="fractalNoise" baseFrequency="0.06 0.1" numOctaves="5" seed="14" result="n"></feTurbulence>
    <feColorMatrix type="matrix" values="0 0 0 0 0  0 0 0 0 0  0 0 0 0 0  0 0 0 -1.8 2" in="n" result="m"></feColorMatrix>
    <feComposite in="SourceGraphic" in2="m" operator="in"></feComposite>
  </filter>
  <filter id="sb"><feGaussianBlur stdDeviation="2.5"></feGaussianBlur></filter>
  
  <linearGradient id="skinBoy" x1="0" y1="0" x2="0" y2="1">
    <stop offset="0%" stop-color="#F8C8A0"></stop>
    <stop offset="100%" stop-color="#F0B888"></stop>
  </linearGradient>
  
  <linearGradient id="skinGirl" x1="0" y1="0" x2="0" y2="1">
    <stop offset="0%" stop-color="#F8CAAA"></stop>
    <stop offset="100%" stop-color="#F2B898"></stop>
  </linearGradient>
  
  <linearGradient id="jacketGrad" x1="0" y1="0" x2="0" y2="1">
    <stop offset="0%" stop-color="#0068B8"></stop>
    <stop offset="100%" stop-color="#004E8C"></stop>
  </linearGradient>
  
  <linearGradient id="dressGrad" x1="0" y1="0" x2="1" y2="1">
    <stop offset="0%" stop-color="#C8EAE8"></stop>
    <stop offset="100%" stop-color="#8ACECE"></stop>
  </linearGradient>
  
  <linearGradient id="pathGrad" x1="0" y1="0" x2="0" y2="1">
    <stop offset="0%" stop-color="#D4B896"></stop>
    <stop offset="100%" stop-color="#C4A882"></stop>
  </linearGradient>
</defs>


<g filter="url(#sk)">
  <path d="M100,530 C140,515 200,510 270,514 C340,518 400,510 450,518 C480,522 500,530 510,540 L510,580 L80,580 Z" fill="#8AACB0" opacity="0.5"></path>
  <path d="M120,528 C160,520 220,518 280,521 C340,524 400,518 448,524" stroke="#6A9098" stroke-width="1.5" fill="none" opacity="0.5"></path>
  
  <ellipse cx="170" cy="528" rx="30" ry="12" fill="#7A9EA8" opacity="0.6"></ellipse>
  <ellipse cx="390" cy="524" rx="24" ry="10" fill="#7A9EA8" opacity="0.55"></ellipse>
  <ellipse cx="290" cy="530" rx="18" ry="8" fill="#6A8E98" opacity="0.5"></ellipse>
  <path d="M155,520 C160,514 175,512 185,518" stroke="#5A8090" stroke-width="1" fill="none" opacity="0.5"></path>
  <path d="M376,516 C382,510 395,509 402,515" stroke="#5A8090" stroke-width="1" fill="none" opacity="0.5"></path>
</g>


<g id="boy" filter="url(#sk)">
  
  <ellipse cx="200" cy="542" rx="42" ry="12" fill="#005E7A" opacity="0.18" filter="url(#sb)"></ellipse>

  
  <rect x="148" y="355" width="38" height="55" rx="8" fill="#003F70" opacity="0.85"></rect>
  <rect x="150" y="360" width="34" height="48" rx="6" fill="#00508A"></rect>
  <rect x="160" y="365" width="14" height="8" rx="3" fill="#0068B8" opacity="0.6"></rect>
  
  <path d="M152,358 C148,340 148,320 150,310" stroke="#003F70" stroke-width="5" fill="none" stroke-linecap="round"></path>
  <path d="M184,358 C188,340 188,320 186,310" stroke="#003F70" stroke-width="5" fill="none" stroke-linecap="round"></path>

  
  <path d="M158,310 C152,340 148,375 150,405 C152,420 175,428 200,426 C222,424 238,416 240,402 C242,378 240,342 234,310 C225,302 168,302 158,310 Z" fill="url(#jacketGrad)"></path>
  
  <rect x="162" y="370" width="20" height="16" rx="4" fill="#003F70" opacity="0.5"></rect>
  
  <path d="M168,308 C176,296 196,296 208,308" fill="#0068B8" opacity="0.7"></path>
  
  <path d="M196,310 L196,425" stroke="#003F70" stroke-width="1.2" opacity="0.4"></path>
  
  <path d="M162,315 C160,345 158,380 160,408" stroke="white" stroke-width="1.5" fill="none" opacity="0.15" stroke-linecap="round"></path>

  
  <rect x="185" y="290" width="26" height="22" rx="8" fill="url(#skinBoy)"></rect>

  
  <ellipse cx="198" cy="258" rx="38" ry="42" fill="url(#skinBoy)"></ellipse>
  
  <path d="M218,248 C226,260 228,275 222,285" stroke="#E0A878" stroke-width="6" fill="none" opacity="0.3" stroke-linecap="round"></path>

  
  <path d="M162,248 C160,225 168,205 185,198 C195,194 210,194 222,200 C235,206 242,220 240,240 C248,228 248,210 238,198 C226,184 206,178 188,182 C168,186 156,202 155,222 C154,232 156,242 162,248 Z" fill="#3A2210"></path>
  
  <path d="M165,238 C170,225 178,215 188,210" stroke="#2A1808" stroke-width="1.2" fill="none" opacity="0.5"></path>
  <path d="M228,230 C224,218 218,210 210,206" stroke="#2A1808" stroke-width="1.2" fill="none" opacity="0.45"></path>

  
  <ellipse cx="160" cy="262" rx="9" ry="12" fill="#F0B888"></ellipse>
  <path d="M163,255 C165,260 164,268 162,272" stroke="#E0A878" stroke-width="1.5" fill="none" opacity="0.6"></path>

  
  <ellipse cx="184" cy="256" rx="7" ry="8" fill="white"></ellipse>
  <ellipse cx="212" cy="256" rx="7" ry="8" fill="white"></ellipse>
  <circle cx="186" cy="258" r="5" fill="#2A1808"></circle>
  <circle cx="214" cy="258" r="5" fill="#2A1808"></circle>
  <circle cx="188" cy="256" r="2" fill="#0A0808"></circle>
  <circle cx="216" cy="256" r="2" fill="#0A0808"></circle>
  
  <circle cx="189" cy="254" r="1.5" fill="white"></circle>
  <circle cx="217" cy="254" r="1.5" fill="white"></circle>
  
  <path d="M178,246 C182,242 190,241 196,244" stroke="#3A2210" stroke-width="2.5" fill="none" stroke-linecap="round"></path>
  <path d="M206,244 C212,241 220,242 226,246" stroke="#3A2210" stroke-width="2.5" fill="none" stroke-linecap="round"></path>

  
  <path d="M196,268 C194,274 196,278 200,278 C204,278 206,274 204,268" stroke="#E0A878" stroke-width="1.5" fill="none" opacity="0.7"></path>

  
  <path d="M182,285 C188,292 206,294 220,287" stroke="#C08060" stroke-width="2.5" fill="none" stroke-linecap="round"></path>
  
  <path d="M186,288 C192,293 210,293 216,289" fill="white" opacity="0.6"></path>

  
  <path d="M158,318 C148,345 142,375 138,400" stroke="#004E8C" stroke-width="20" fill="none" stroke-linecap="round"></path>
  
  <path d="M143,388 C140,400 138,412 136,422" stroke="url(#skinBoy)" stroke-width="16" fill="none" stroke-linecap="round"></path>
  
  <ellipse cx="134" cy="428" rx="13" ry="10" fill="url(#skinBoy)"></ellipse>
  <path d="M126,424 C122,430 120,436 122,440" stroke="#F0B888" stroke-width="4" fill="none" stroke-linecap="round"></path>
  <path d="M130,428 C127,435 126,442 128,446" stroke="#F0B888" stroke-width="4" fill="none" stroke-linecap="round"></path>
  <path d="M135,430 C133,438 133,445 135,449" stroke="#F0B888" stroke-width="4" fill="none" stroke-linecap="round"></path>
  <path d="M140,428 C140,436 140,443 142,447" stroke="#F0B888" stroke-width="4" fill="none" stroke-linecap="round"></path>

  
  <path d="M234,318 C255,340 278,358 306,374" stroke="#004E8C" stroke-width="20" fill="none" stroke-linecap="round"></path>
  
  <path d="M294,366 C310,378 326,388 338,396" stroke="url(#skinBoy)" stroke-width="16" fill="none" stroke-linecap="round"></path>
  
  <ellipse cx="346" cy="403" rx="14" ry="11" fill="url(#skinBoy)" transform="rotate(-30,346,403)"></ellipse>
  
  <path d="M340,396 C348,388 356,384 362,386" stroke="#F0B888" stroke-width="4.5" fill="none" stroke-linecap="round"></path>
  <path d="M344,401 C354,393 362,390 368,394" stroke="#F0B888" stroke-width="4.5" fill="none" stroke-linecap="round"></path>
  <path d="M346,407 C356,402 364,400 370,404" stroke="#F0B888" stroke-width="4.5" fill="none" stroke-linecap="round"></path>
  <path d="M345,413 C354,410 362,410 366,415" stroke="#F0B888" stroke-width="4.5" fill="none" stroke-linecap="round"></path>

  
  <path d="M155,420 C152,452 148,480 144,510" stroke="#1A3A6E" stroke-width="26" fill="none" stroke-linecap="round"></path>
  <path d="M238,418 C240,450 242,480 244,510" stroke="#1A3A6E" stroke-width="26" fill="none" stroke-linecap="round"></path>
  
  <path d="M148,428 C148,460 147,490 146,515" stroke="#152E58" stroke-width="1.2" fill="none" opacity="0.4"></path>
  <path d="M244,426 C244,458 245,488 246,514" stroke="#152E58" stroke-width="1.2" fill="none" opacity="0.4"></path>

  
  <path d="M132,508 C134,524 138,536 148,542 C162,548 178,546 184,540 C190,534 190,520 186,510 C172,506 148,506 132,508 Z" fill="#1A2A4A"></path>
  <path d="M133,516 C138,512 150,510 163,512 C172,513 180,518 182,524" stroke="#2A3A5A" stroke-width="1.2" fill="none" opacity="0.5"></path>
  <path d="M230,508 C232,522 234,534 244,540 C258,548 274,546 280,540 C286,534 286,520 282,510 C268,506 244,506 230,508 Z" fill="#1A2A4A"></path>
  <path d="M232,516 C237,512 248,510 261,512 C270,513 278,518 280,524" stroke="#2A3A5A" stroke-width="1.2" fill="none" opacity="0.5"></path>
</g>


<g id="girl" filter="url(#sk)">
  
  <ellipse cx="370" cy="550" rx="38" ry="10" fill="#005E7A" opacity="0.15" filter="url(#sb)"></ellipse>

  
  <path d="M330,340 C322,368 318,395 320,418 C322,432 345,440 370,440 C394,440 416,432 418,418 C420,394 418,366 410,340 C402,330 338,330 330,340 Z" fill="url(#dressGrad)"></path>
  
  <circle cx="342" cy="360" r="2.5" fill="#0095A1" opacity="0.3"></circle>
  <circle cx="360" cy="370" r="2" fill="#0095A1" opacity="0.25"></circle>
  <circle cx="350" cy="382" r="2.5" fill="#0095A1" opacity="0.3"></circle>
  <circle cx="368" cy="355" r="2" fill="#0095A1" opacity="0.25"></circle>
  <circle cx="395" cy="365" r="2.5" fill="#0095A1" opacity="0.28"></circle>
  <circle cx="405" cy="380" r="2" fill="#0095A1" opacity="0.25"></circle>
  
  <path d="M350,338 C358,330 382,330 390,338" fill="#A0CCCA" opacity="0.6"></path>
  
  <path d="M370,340 L370,440" stroke="#8ABEBE" stroke-width="1" opacity="0.35"></path>
  
  <path d="M334,348 C330,375 328,400 330,422" stroke="white" stroke-width="2" fill="none" opacity="0.25" stroke-linecap="round"></path>
  
  <rect x="322" y="406" width="96" height="10" rx="5" fill="#0095A1" opacity="0.4"></rect>

  
  <path d="M320,420 C308,440 298,460 300,478 C310,468 326,452 336,440 L370,445 L404,440 C414,452 430,468 440,478 C442,460 432,440 420,420 C410,432 390,438 370,440 C350,438 330,432 320,420 Z" fill="#9ACACA"></path>
  
  <path d="M310,435 C316,450 318,468 316,480" stroke="#7AACAC" stroke-width="1.2" fill="none" opacity="0.5"></path>
  <path d="M430,435 C424,450 422,468 424,480" stroke="#7AACAC" stroke-width="1.2" fill="none" opacity="0.5"></path>
  <path d="M350,440 C348,458 348,472 350,484" stroke="#8ABEBE" stroke-width="1" fill="none" opacity="0.4"></path>
  <path d="M390,440 C392,458 392,472 390,484" stroke="#8ABEBE" stroke-width="1" fill="none" opacity="0.4"></path>

  
  <rect x="358" y="318" width="24" height="24" rx="8" fill="url(#skinGirl)"></rect>

  
  <ellipse cx="370" cy="285" rx="36" ry="40" fill="url(#skinGirl)"></ellipse>
  
  <path d="M388,276 C395,286 397,300 392,310" stroke="#E0A880" stroke-width="5" fill="none" opacity="0.3" stroke-linecap="round"></path>

  
  <path d="M336,275 C334,252 342,228 358,216 C367,210 382,208 394,214 C408,220 416,234 416,252 L418,265 C422,248 420,228 410,214 C398,198 378,192 360,196 C340,200 328,218 330,240 C330,252 332,264 336,275 Z" fill="#3A2210"></path>
  
  <path d="M336,275 C330,295 328,318 332,340 C340,330 344,310 342,288" fill="#3A2210" opacity="0.8"></path>
  <path d="M402,270 C408,290 410,315 406,338 C398,328 396,308 398,286" fill="#3A2210" opacity="0.75"></path>
  
  <path d="M356,214 C362,210 372,210 380,215" stroke="#6A4020" stroke-width="2" fill="none" opacity="0.5"></path>
  
  <ellipse cx="404" cy="268" rx="10" ry="8" fill="#3A2210" opacity="0.6" transform="rotate(20,404,268)"></ellipse>
  <path d="M402,260 C408,264 410,272 406,278" stroke="#2A1808" stroke-width="1.5" fill="none" opacity="0.5"></path>

  
  <ellipse cx="406" cy="289" rx="8" ry="11" fill="#F2B898"></ellipse>
  
  <circle cx="406" cy="300" r="3" fill="#00D4BB" opacity="0.8"></circle>

  
  <ellipse cx="354" cy="280" rx="7" ry="8" fill="white"></ellipse>
  <ellipse cx="382" cy="280" rx="7" ry="8" fill="white"></ellipse>
  
  <circle cx="356" cy="277" r="5" fill="#3A2808"></circle>
  <circle cx="384" cy="277" r="5" fill="#3A2808"></circle>
  <circle cx="357" cy="276" r="2.5" fill="#0A0808"></circle>
  <circle cx="385" cy="276" r="2.5" fill="#0A0808"></circle>
  
  <circle cx="358" cy="274" r="1.5" fill="white"></circle>
  <circle cx="386" cy="274" r="1.5" fill="white"></circle>
  
  <path d="M348,274 C348,270 350,268 352,270" stroke="#2A1808" stroke-width="1.2" fill="none"></path>
  <path d="M360,272 C361,268 364,268 364,272" stroke="#2A1808" stroke-width="1.2" fill="none"></path>
  
  <path d="M348,268 C353,263 360,262 366,265" stroke="#3A2210" stroke-width="2.5" fill="none" stroke-linecap="round"></path>
  <path d="M376,265 C382,262 390,263 394,268" stroke="#3A2210" stroke-width="2.5" fill="none" stroke-linecap="round"></path>

  
  <path d="M367,293 C365,298 367,302 370,302 C373,302 375,298 373,293" stroke="#E0A880" stroke-width="1.5" fill="none" opacity="0.65"></path>

  
  <path d="M354,311 C360,318 380,320 392,313" stroke="#C08060" stroke-width="2.5" fill="none" stroke-linecap="round"></path>
  <path d="M358,313 C364,318 380,318 388,314" fill="white" opacity="0.55"></path>

  
  <path d="M330,348 C312,325 296,305 284,286" stroke="#7ABEBE" stroke-width="18" fill="none" stroke-linecap="round"></path>
  
  <path d="M296,300 C286,285 278,270 272,256" stroke="url(#skinGirl)" stroke-width="14" fill="none" stroke-linecap="round"></path>
  
  <ellipse cx="268" cy="248" rx="12" ry="10" fill="url(#skinGirl)" transform="rotate(20,268,248)"></ellipse>
  
  <path d="M262,242 C258,234 258,226 262,224" stroke="#F2B898" stroke-width="4" fill="none" stroke-linecap="round"></path>
  <path d="M268,240 C265,231 266,222 270,220" stroke="#F2B898" stroke-width="4" fill="none" stroke-linecap="round"></path>
  <path d="M274,242 C272,233 274,225 278,224" stroke="#F2B898" stroke-width="4" fill="none" stroke-linecap="round"></path>
  <path d="M278,248 C278,240 280,233 284,232" stroke="#F2B898" stroke-width="4" fill="none" stroke-linecap="round"></path>

  
  <path d="M410,348 C422,368 428,388 424,408" stroke="#7ABEBE" stroke-width="16" fill="none" stroke-linecap="round"></path>
  
  <ellipse cx="422" cy="416" rx="11" ry="9" fill="url(#skinGirl)"></ellipse>

  
  <path d="M326,478 C322,500 318,522 316,544" stroke="#3A5E70" stroke-width="18" fill="none" stroke-linecap="round"></path>
  <path d="M414,478 C418,500 422,522 424,544" stroke="#3A5E70" stroke-width="18" fill="none" stroke-linecap="round"></path>

  
  <path d="M306,540 C307,555 312,566 322,571 C336,576 350,574 355,568 C360,562 358,548 354,540 C340,536 318,536 306,540 Z" fill="#1A2A3A"></path>
  <path d="M308,548 C313,544 324,542 337,544 C346,546 352,551 354,556" stroke="#2A3A4A" stroke-width="1" fill="none" opacity="0.5"></path>
  
  <rect x="308" y="568" width="12" height="6" rx="2" fill="#0A1820"></rect>
  <path d="M412,540 C413,554 418,564 428,570 C440,576 454,574 459,568 C464,562 462,548 458,540 C444,536 422,536 412,540 Z" fill="#1A2A3A"></path>
  <path d="M414,548 C419,544 430,542 443,544 C452,546 458,551 460,556" stroke="#2A3A4A" stroke-width="1" fill="none" opacity="0.5"></path>
  <rect x="414" y="568" width="12" height="6" rx="2" fill="#0A1820"></rect>
</g>


<ellipse cx="306" cy="242" rx="18" ry="14" fill="#00D4BB" opacity="0.2" filter="url(#sb)"></ellipse>
<ellipse cx="306" cy="242" rx="10" ry="8" fill="#00D4BB" opacity="0.15"></ellipse>
</svg>