<svg xmlns="http://www.w3.org/2000/svg" viewBox="0 0 260 320" width="260" height="320">
  <defs>
  <filter id="sketch" x="-5%" y="-5%" width="110%" height="110%">
    <feTurbulence type="turbulence" baseFrequency="0.035" numOctaves="4" seed="12" result="noise"></feTurbulence>
    <feDisplacementMap in="SourceGraphic" in2="noise" scale="2.2" xChannelSelector="R" yChannelSelector="G"></feDisplacementMap>
  </filter>
  <filter id="wc" x="-8%" y="-8%" width="116%" height="116%">
    <feTurbulence type="fractalNoise" baseFrequency="0.055 0.09" numOctaves="5" seed="7" result="n"></feTurbulence>
    <feColorMatrix type="matrix" values="0 0 0 0 0  0 0 0 0 0  0 0 0 0 0  0 0 0 -2 2.2" in="n" result="mask"></feColorMatrix>
    <feComposite in="SourceGraphic" in2="mask" operator="in" result="wc"></feComposite>
    <feComposite in="wc" in2="SourceGraphic" operator="over"></feComposite>
  </filter>
  <filter id="softblur"><feGaussianBlur stdDeviation="1.2"></feGaussianBlur></filter></defs>
  <g filter="url(#sketch)"><path d="M95,300 C90.5,236 84.5,127 80,60" stroke="#6A9060" stroke-width="2.2" fill="none" stroke-linecap="round"></path><ellipse cx="89.85" cy="219.99" rx="6" ry="10" fill="#9058B8" opacity="0.69" transform="rotate(-9,89.85,219.99)"></ellipse><line x1="89.85" y1="222.99" x2="89.85" y2="215.99" stroke="#6A9060" stroke-width="0.6" opacity="0.5"></line><ellipse cx="88.58" cy="199.07" rx="5.75" ry="9.5" fill="#9058B8" opacity="0.74" transform="rotate(-7.55,88.58,199.07)"></ellipse><line x1="88.58" y1="201.92" x2="88.58" y2="195.27" stroke="#6A9060" stroke-width="0.6" opacity="0.5"></line><ellipse cx="87.3" cy="177.85" rx="5.5" ry="9" fill="#9058B8" opacity="0.91" transform="rotate(-8.82,87.3,177.85)"></ellipse><line x1="87.3" y1="180.55" x2="87.3" y2="174.25" stroke="#6A9060" stroke-width="0.6" opacity="0.5"></line><ellipse cx="86.03" cy="156.62" rx="5.25" ry="8.5" fill="#9058B8" opacity="0.73" transform="rotate(-4.02,86.03,156.62)"></ellipse><line x1="86.03" y1="159.17" x2="86.03" y2="153.22" stroke="#6A9060" stroke-width="0.6" opacity="0.5"></line><ellipse cx="84.76" cy="135.65" rx="5" ry="8" fill="#9058B8" opacity="0.94" transform="rotate(-6.55,84.76,135.65)"></ellipse><line x1="84.76" y1="138.05" x2="84.76" y2="132.45" stroke="#6A9060" stroke-width="0.6" opacity="0.5"></line><ellipse cx="83.51" cy="115.22" rx="4.75" ry="7.5" fill="#9058B8" opacity="0.95" transform="rotate(-4.76,83.51,115.22)"></ellipse><line x1="83.51" y1="117.47" x2="83.51" y2="112.22" stroke="#6A9060" stroke-width="0.6" opacity="0.5"></line><ellipse cx="82.3" cy="95.62" rx="4.5" ry="7" fill="#9058B8" opacity="0.85" transform="rotate(-1.13,82.3,95.62)"></ellipse><line x1="82.3" y1="97.72" x2="82.3" y2="92.82" stroke="#6A9060" stroke-width="0.6" opacity="0.5"></line><ellipse cx="81.12" cy="77.12" rx="4.25" ry="6.5" fill="#9058B8" opacity="0.89" transform="rotate(-8.07,81.12,77.12)"></ellipse><line x1="81.12" y1="79.07" x2="81.12" y2="74.52" stroke="#6A9060" stroke-width="0.6" opacity="0.5"></line><ellipse cx="80" cy="60" rx="4" ry="6" fill="#9058B8" opacity="0.83" transform="rotate(-3.57,80,60)"></ellipse><line x1="80" y1="61.8" x2="80" y2="57.6" stroke="#6A9060" stroke-width="0.6" opacity="0.5"></line><path d="M93.61,279.54 Q103.61,271.54 107.61,265.54" stroke="#6A9060" stroke-width="1.2" fill="none" opacity="0.6" stroke-linecap="round"></path><path d="M91.84,252.15 Q81.84,244.15 77.84,238.15" stroke="#6A9060" stroke-width="1.2" fill="none" opacity="0.6" stroke-linecap="round"></path><path d="M90.01,222.53 Q100.01,214.53 104.01,208.53" stroke="#6A9060" stroke-width="1.2" fill="none" opacity="0.6" stroke-linecap="round"></path><path d="M130,310 C130,241.5 130,126.5 130,55" stroke="#6A9060" stroke-width="2.2" fill="none" stroke-linecap="round"></path><ellipse cx="130" cy="224.84" rx="6" ry="10" fill="#8050A8" opacity="0.69" transform="rotate(2.18,130,224.84)"></ellipse><line x1="130" y1="227.84" x2="130" y2="220.84" stroke="#6A9060" stroke-width="0.6" opacity="0.5"></line><ellipse cx="130" cy="205.14" rx="5.75" ry="9.5" fill="#8050A8" opacity="0.91" transform="rotate(-0.83,130,205.14)"></ellipse><line x1="130" y1="207.99" x2="130" y2="201.34" stroke="#6A9060" stroke-width="0.6" opacity="0.5"></line><ellipse cx="130" cy="185.17" rx="5.5" ry="9" fill="#8050A8" opacity="0.84" transform="rotate(0.81,130,185.17)"></ellipse><line x1="130" y1="187.87" x2="130" y2="181.57" stroke="#6A9060" stroke-width="0.6" opacity="0.5"></line><ellipse cx="130" cy="165.13" rx="5.25" ry="8.5" fill="#8050A8" opacity="0.82" transform="rotate(-0.76,130,165.13)"></ellipse><line x1="130" y1="167.68" x2="130" y2="161.73" stroke="#6A9060" stroke-width="0.6" opacity="0.5"></line><ellipse cx="130" cy="145.24" rx="5" ry="8" fill="#8050A8" opacity="0.76" transform="rotate(-1.35,130,145.24)"></ellipse><line x1="130" y1="147.64" x2="130" y2="142.04" stroke="#6A9060" stroke-width="0.6" opacity="0.5"></line><ellipse cx="130" cy="125.69" rx="4.75" ry="7.5" fill="#8050A8" opacity="0.95" transform="rotate(-1.74,130,125.69)"></ellipse><line x1="130" y1="127.94" x2="130" y2="122.69" stroke="#6A9060" stroke-width="0.6" opacity="0.5"></line><ellipse cx="130" cy="106.69" rx="4.5" ry="7" fill="#8050A8" opacity="0.86" transform="rotate(-1.24,130,106.69)"></ellipse><line x1="130" y1="108.79" x2="130" y2="103.89" stroke="#6A9060" stroke-width="0.6" opacity="0.5"></line><ellipse cx="130" cy="88.43" rx="4.25" ry="6.5" fill="#8050A8" opacity="0.85" transform="rotate(-0.33,130,88.43)"></ellipse><line x1="130" y1="90.38" x2="130" y2="85.83" stroke="#6A9060" stroke-width="0.6" opacity="0.5"></line><ellipse cx="130" cy="71.14" rx="4" ry="6" fill="#8050A8" opacity="0.73" transform="rotate(3.43,130,71.14)"></ellipse><line x1="130" y1="72.94" x2="130" y2="68.74" stroke="#6A9060" stroke-width="0.6" opacity="0.5"></line><ellipse cx="130" cy="55" rx="3.75" ry="5.5" fill="#8050A8" opacity="0.72" transform="rotate(3.71,130,55)"></ellipse><line x1="130" y1="56.65" x2="130" y2="52.8" stroke="#6A9060" stroke-width="0.6" opacity="0.5"></line><path d="M130,288.15 Q140,280.15 144,274.15" stroke="#6A9060" stroke-width="1.2" fill="none" opacity="0.6" stroke-linecap="round"></path><path d="M130,259 Q120,251 116,245" stroke="#6A9060" stroke-width="1.2" fill="none" opacity="0.6" stroke-linecap="round"></path><path d="M130,227.54 Q140,219.54 144,213.54" stroke="#6A9060" stroke-width="1.2" fill="none" opacity="0.6" stroke-linecap="round"></path><path d="M165,305 C162.9,241 160.1,132 158,65" stroke="#6A9060" stroke-width="2.2" fill="none" stroke-linecap="round"></path><ellipse cx="162.6" cy="224.99" rx="6" ry="10" fill="#A678C8" opacity="0.69" transform="rotate(4.48,162.6,224.99)"></ellipse><line x1="162.6" y1="227.99" x2="162.6" y2="220.99" stroke="#6A9060" stroke-width="0.6" opacity="0.5"></line><ellipse cx="161.92" cy="201.05" rx="5.75" ry="9.5" fill="#A678C8" opacity="0.85" transform="rotate(2.18,161.92,201.05)"></ellipse><line x1="161.92" y1="203.9" x2="161.92" y2="197.25" stroke="#6A9060" stroke-width="0.6" opacity="0.5"></line><ellipse cx="161.24" cy="176.78" rx="5.5" ry="9" fill="#A678C8" opacity="0.65" transform="rotate(7.16,161.24,176.78)"></ellipse><line x1="161.24" y1="179.48" x2="161.24" y2="173.18" stroke="#6A9060" stroke-width="0.6" opacity="0.5"></line><ellipse cx="160.56" cy="152.58" rx="5.25" ry="8.5" fill="#A678C8" opacity="0.83" transform="rotate(3.34,160.56,152.58)"></ellipse><line x1="160.56" y1="155.13" x2="160.56" y2="149.18" stroke="#6A9060" stroke-width="0.6" opacity="0.5"></line><ellipse cx="159.89" cy="128.89" rx="5" ry="8" fill="#A678C8" opacity="0.69" transform="rotate(7.09,159.89,128.89)"></ellipse><line x1="159.89" y1="131.29" x2="159.89" y2="125.69" stroke="#6A9060" stroke-width="0.6" opacity="0.5"></line><ellipse cx="159.23" cy="106.12" rx="4.75" ry="7.5" fill="#A678C8" opacity="0.83" transform="rotate(9.99,159.23,106.12)"></ellipse><line x1="159.23" y1="108.37" x2="159.23" y2="103.12" stroke="#6A9060" stroke-width="0.6" opacity="0.5"></line><ellipse cx="158.6" cy="84.68" rx="4.5" ry="7" fill="#A678C8" opacity="0.89" transform="rotate(2.16,158.6,84.68)"></ellipse><line x1="158.6" y1="86.78" x2="158.6" y2="81.88" stroke="#6A9060" stroke-width="0.6" opacity="0.5"></line><ellipse cx="158" cy="65" rx="4.25" ry="6.5" fill="#A678C8" opacity="0.7" transform="rotate(4.47,158,65)"></ellipse><line x1="158" y1="66.95" x2="158" y2="62.4" stroke="#6A9060" stroke-width="0.6" opacity="0.5"></line><path d="M164.35,284.54 Q174.35,276.54 178.35,270.54" stroke="#6A9060" stroke-width="1.2" fill="none" opacity="0.6" stroke-linecap="round"></path><path d="M163.53,257.15 Q153.53,249.15 149.53,243.15" stroke="#6A9060" stroke-width="1.2" fill="none" opacity="0.6" stroke-linecap="round"></path><path d="M162.67,227.53 Q172.67,219.53 176.67,213.53" stroke="#6A9060" stroke-width="1.2" fill="none" opacity="0.6" stroke-linecap="round"></path><ellipse cx="90" cy="130" rx="18" ry="50" fill="#A678C8" opacity="0.08" filter="url(#softblur)"></ellipse><ellipse cx="130" cy="120" rx="16" ry="55" fill="#8050A8" opacity="0.09" filter="url(#softblur)"></ellipse><ellipse cx="160" cy="130" rx="15" ry="48" fill="#A678C8" opacity="0.08" filter="url(#softblur)"></ellipse></g>
</svg>