<svg xmlns="http://www.w3.org/2000/svg" viewBox="0 0 360 330" width="360" height="330">
  <defs>
  <filter id="sketch" x="-5%" y="-5%" width="110%" height="110%">
    <feTurbulence type="turbulence" baseFrequency="0.035" numOctaves="4" seed="12" result="noise"></feTurbulence>
    <feDisplacementMap in="SourceGraphic" in2="noise" scale="2.2" xChannelSelector="R" yChannelSelector="G"></feDisplacementMap>
  </filter>
  <filter id="wc" x="-8%" y="-8%" width="116%" height="116%">
    <feTurbulence type="fractalNoise" baseFrequency="0.055 0.09" numOctaves="5" seed="7" result="n"></feTurbulence>
    <feColorMatrix type="matrix" values="0 0 0 0 0  0 0 0 0 0  0 0 0 0 0  0 0 0 -2 2.2" in="n" result="mask"></feColorMatrix>
    <feComposite in="SourceGraphic" in2="mask" operator="in" result="wc"></feComposite>
    <feComposite in="wc" in2="SourceGraphic" operator="over"></feComposite>
  </filter>
  <filter id="softblur"><feGaussianBlur stdDeviation="1.2"></feGaussianBlur></filter></defs>
  <g filter="url(#sketch)"><path d="M130,310 C125.00774810091383,263 106.17792820574523,250 110,200" stroke="#5A9060" stroke-width="2" fill="none" stroke-linecap="round"></path><path d="M165,310 C168.0492689721745,260.5 167.25090448116038,247.5 168,195" stroke="#5A9060" stroke-width="2" fill="none" stroke-linecap="round"></path><path d="M200,310 C202.43956503685524,255.5 216.41567557064414,242.5 215,185" stroke="#4A8050" stroke-width="2" fill="none" stroke-linecap="round"></path><path d="M235,310 C236.57417005074598,265.5 242.66085575675672,252.5 245,205" stroke="#5A9060" stroke-width="2" fill="none" stroke-linecap="round"></path><path d="M270,310 C267.5034417747552,270.5 280.27677358340173,257.5 280,215" stroke="#4A8050" stroke-width="2" fill="none" stroke-linecap="round"></path><path d="M118,255 C105,245 95,248 90,255 C100,254 112,250 118,255 Z" fill="#5A9060" opacity="0.7"></path><path d="M166,252 C178,242 188,246 192,253 C182,251 172,247 166,252 Z" fill="#5A9060" opacity="0.65"></path><path d="M218,240 C208,228 198,231 195,238 C202,236 212,233 218,240 Z" fill="#4A8050" opacity="0.7"></path><path d="M110,200 C117.84,198.41 123.12,205.72 123.72,202.78 C124.32,199.84 116.6,204.52 110,200 Z" fill="#B6DADE" opacity="0.94"></path><path d="M110,200 C113.93,206.97 108.61,214.25 111.59,213.91 C114.58,213.57 107.74,207.68 110,200 Z" fill="#B6DADE" opacity="0.78"></path><path d="M110,200 C104.59,205.89 96.02,203.09 97.26,205.81 C98.51,208.54 102,200.23 110,200 Z" fill="#B6DADE" opacity="0.73"></path><path d="M110,200 C102.72,196.68 102.74,187.66 100.53,189.68 C98.32,191.71 107.31,192.46 110,200 Z" fill="#B6DADE" opacity="0.78"></path><path d="M110,200 C110.91,192.05 119.5,189.29 116.89,187.81 C114.27,186.33 116.34,195.12 110,200 Z" fill="#B6DADE" opacity="0.74"></path><circle cx="110" cy="200" r="5.5" fill="#00D4BB" opacity="0.9"></circle><circle cx="109" cy="199" r="1.7999999999999998" fill="white" opacity="0.6"></circle><path d="M168,195 C176.76,195.88 179.93,205.28 181.51,202.38 C183.1,199.49 173.47,201.89 168,195 Z" fill="#0095A1" opacity="0.78"></path><path d="M168,195 C171.62,203.02 165.06,210.47 168.36,210.4 C171.66,210.32 164.77,203.18 168,195 Z" fill="#0095A1" opacity="0.78"></path><path d="M168,195 C162.86,202.14 153.13,200.19 154.85,203.01 C156.57,205.83 159.3,196.29 168,195 Z" fill="#0095A1" opacity="0.88"></path><path d="M168,195 C159.24,194.12 156.07,184.72 154.49,187.62 C152.9,190.51 162.53,188.11 168,195 Z" fill="#0095A1" opacity="0.94"></path><path d="M168,195 C164.38,186.98 170.94,179.53 167.64,179.6 C164.34,179.68 171.23,186.82 168,195 Z" fill="#0095A1" opacity="0.84"></path><path d="M168,195 C173.14,187.86 182.87,189.81 181.15,186.99 C179.43,184.17 176.7,193.71 168,195 Z" fill="#0095A1" opacity="0.75"></path><circle cx="168" cy="195" r="6.050000000000001" fill="#C7E5E8" opacity="0.9"></circle><circle cx="166.9" cy="193.9" r="1.98" fill="white" opacity="0.6"></circle><path d="M215,185 C220.94,189.07 219.54,197.06 221.81,195.6 C224.08,194.14 216.22,192.1 215,185 Z" fill="#A678C8" opacity="0.95"></path><path d="M215,185 C212.97,191.91 204.93,193.04 207.02,194.75 C209.11,196.46 208.63,188.36 215,185 Z" fill="#A678C8" opacity="0.74"></path><path d="M215,185 C207.8,185.2 204.24,177.91 203.26,180.42 C202.28,182.94 209.84,179.98 215,185 Z" fill="#A678C8" opacity="0.68"></path><path d="M215,185 C212.58,178.22 218.42,172.58 215.72,172.42 C213.03,172.27 218.18,178.54 215,185 Z" fill="#A678C8" opacity="0.88"></path><path d="M215,185 C220.7,180.6 227.87,184.41 227.19,181.8 C226.5,179.19 222.13,186.03 215,185 Z" fill="#A678C8" opacity="0.7"></path><circle cx="215" cy="185" r="4.95" fill="#E8C0F0" opacity="0.9"></circle><circle cx="214.1" cy="184.1" r="1.6199999999999999" fill="white" opacity="0.6"></circle><path d="M245,205 C252.96,204.2 257.49,212 258.37,209.14 C259.26,206.27 251.12,210.15 245,205 Z" fill="#00D4BB" opacity="0.68"></path><path d="M245,205 C249.67,211.49 245.18,219.32 248.1,218.65 C251.03,217.99 243.6,212.88 245,205 Z" fill="#00D4BB" opacity="0.87"></path><path d="M245,205 C241.71,212.29 232.69,212.31 234.73,214.51 C236.77,216.71 237.48,207.72 245,205 Z" fill="#00D4BB" opacity="0.71"></path><path d="M245,205 C237.04,205.8 232.51,198 231.63,200.86 C230.74,203.73 238.88,199.85 245,205 Z" fill="#00D4BB" opacity="0.78"></path><path d="M245,205 C240.33,198.51 244.82,190.68 241.9,191.35 C238.97,192.01 246.4,197.12 245,205 Z" fill="#00D4BB" opacity="0.69"></path><path d="M245,205 C248.29,197.71 257.31,197.69 255.27,195.49 C253.23,193.29 252.52,202.28 245,205 Z" fill="#00D4BB" opacity="0.79"></path><circle cx="245" cy="205" r="5.5" fill="#FFFFFF" opacity="0.9"></circle><circle cx="244" cy="204" r="1.7999999999999998" fill="white" opacity="0.6"></circle><path d="M280,215 C285.89,217.49 286.08,224.71 287.8,223.03 C289.52,221.36 282.32,220.97 280,215 Z" fill="#B6DADE" opacity="0.94"></path><path d="M280,215 C279.45,221.38 272.65,223.78 274.77,224.9 C276.89,226.02 275.04,219.05 280,215 Z" fill="#B6DADE" opacity="0.86"></path><path d="M280,215 C273.77,216.45 269.37,210.72 268.96,213.09 C268.55,215.45 274.62,211.54 280,215 Z" fill="#B6DADE" opacity="0.91"></path><path d="M280,215 C276.7,209.52 280.79,203.57 278.41,203.91 C276.03,204.25 281.63,208.81 280,215 Z" fill="#B6DADE" opacity="0.8"></path><path d="M280,215 C284.19,210.16 291.11,212.22 290.05,210.06 C288.99,207.91 286.39,214.64 280,215 Z" fill="#B6DADE" opacity="0.84"></path><circle cx="280" cy="215" r="4.4" fill="#0095A1" opacity="0.9"></circle><circle cx="279.2" cy="214.2" r="1.44" fill="white" opacity="0.6"></circle><ellipse cx="148" cy="200" rx="5" ry="9" fill="#0095A1" opacity="0.7" transform="rotate(-15,148,200)"></ellipse><ellipse cx="148" cy="197" rx="4" ry="6" fill="#00D4BB" opacity="0.6" transform="rotate(-15,148,197)"></ellipse><path d="M60,320 C100,308 160,310 220,308 C280,306 330,312 340,318" stroke="#4A8050" stroke-width="2.5" fill="none" opacity="0.35" stroke-linecap="round"></path></g>
</svg>