<svg xmlns="http://www.w3.org/2000/svg" viewBox="0 0 240 300" width="240" height="300">
  <defs>
  <filter id="sketch" x="-5%" y="-5%" width="110%" height="110%">
    <feTurbulence type="turbulence" baseFrequency="0.035" numOctaves="4" seed="12" result="noise"></feTurbulence>
    <feDisplacementMap in="SourceGraphic" in2="noise" scale="2.2" xChannelSelector="R" yChannelSelector="G"></feDisplacementMap>
  </filter>
  <filter id="wc" x="-8%" y="-8%" width="116%" height="116%">
    <feTurbulence type="fractalNoise" baseFrequency="0.055 0.09" numOctaves="5" seed="7" result="n"></feTurbulence>
    <feColorMatrix type="matrix" values="0 0 0 0 0  0 0 0 0 0  0 0 0 0 0  0 0 0 -2 2.2" in="n" result="mask"></feColorMatrix>
    <feComposite in="SourceGraphic" in2="mask" operator="in" result="wc"></feComposite>
    <feComposite in="wc" in2="SourceGraphic" operator="over"></feComposite>
  </filter>
  <filter id="softblur"><feGaussianBlur stdDeviation="1.2"></feGaussianBlur></filter></defs>
  <g filter="url(#sketch)">
    <path d="M120,290 C108,220 100,120 100,30" stroke="#1A6B50" stroke-width="2.5" fill="none" stroke-linecap="round"></path>
    <path d="M117.92,277.34 Q129.19,275.58 135.86,271.58 Q118.92,271.42 117.92,277.34 Z" fill="#2A9070" opacity="0.74"></path><path d="M117.92,277.34 Q106.66,279.11 99.1,277.47 Q115.16,272 117.92,277.34 Z" fill="#B6DADE" opacity="0.35"></path><line x1="117.92" y1="277.34" x2="135.86" y2="271.58" stroke="#1A6B50" stroke-width="0.7" opacity="0.55"></line><line x1="117.92" y1="277.34" x2="99.1" y2="277.47" stroke="#1A6B50" stroke-width="0.7" opacity="0.45"></line><path d="M115.94,264.11 Q127.48,262.45 134.08,258.46 Q117.03,258.06 115.94,264.11 Z" fill="#2A9070" opacity="0.75"></path><path d="M115.94,264.11 Q104.39,265.77 96.97,263.99 Q113.18,258.62 115.94,264.11 Z" fill="#B6DADE" opacity="0.37"></path><line x1="115.94" y1="264.11" x2="134.08" y2="258.46" stroke="#1A6B50" stroke-width="0.7" opacity="0.55"></line><line x1="115.94" y1="264.11" x2="96.97" y2="263.99" stroke="#1A6B50" stroke-width="0.7" opacity="0.45"></line><path d="M114.04,250.36 Q125.24,248.88 132.2,245.1 Q115.17,244.51 114.04,250.36 Z" fill="#2A9070" opacity="0.62"></path><path d="M114.04,250.36 Q102.85,251.83 95.15,250.02 Q111.44,245.01 114.04,250.36 Z" fill="#B6DADE" opacity="0.41"></path><line x1="114.04" y1="250.36" x2="132.2" y2="245.1" stroke="#1A6B50" stroke-width="0.7" opacity="0.55"></line><line x1="114.04" y1="250.36" x2="95.15" y2="250.02" stroke="#1A6B50" stroke-width="0.7" opacity="0.45"></line><path d="M112.25,236.13 Q123.7,234.74 131.59,230.96 Q113.46,230.17 112.25,236.13 Z" fill="#2A9070" opacity="0.84"></path><path d="M112.25,236.13 Q100.79,237.51 92.21,235.57 Q109.64,230.63 112.25,236.13 Z" fill="#B6DADE" opacity="0.33"></path><line x1="112.25" y1="236.13" x2="131.59" y2="230.96" stroke="#1A6B50" stroke-width="0.7" opacity="0.55"></line><line x1="112.25" y1="236.13" x2="92.21" y2="235.57" stroke="#1A6B50" stroke-width="0.7" opacity="0.45"></line><path d="M110.55,221.47 Q121.92,220.21 129.06,216.53 Q111.82,215.58 110.55,221.47 Z" fill="#2A9070" opacity="0.62"></path><path d="M110.55,221.47 Q99.19,222.72 91.41,220.72 Q108.03,215.99 110.55,221.47 Z" fill="#B6DADE" opacity="0.44"></path><line x1="110.55" y1="221.47" x2="129.06" y2="216.53" stroke="#1A6B50" stroke-width="0.7" opacity="0.55"></line><line x1="110.55" y1="221.47" x2="91.41" y2="220.72" stroke="#1A6B50" stroke-width="0.7" opacity="0.45"></line><path d="M108.96,206.43 Q119.87,205.33 127.27,201.87 Q110.23,200.8 108.96,206.43 Z" fill="#2A9070" opacity="0.7"></path><path d="M108.96,206.43 Q98.06,207.53 90.11,205.53 Q106.6,201.16 108.96,206.43 Z" fill="#B6DADE" opacity="0.33"></path><line x1="108.96" y1="206.43" x2="127.27" y2="201.87" stroke="#1A6B50" stroke-width="0.7" opacity="0.55"></line><line x1="108.96" y1="206.43" x2="90.11" y2="205.53" stroke="#1A6B50" stroke-width="0.7" opacity="0.45"></line><path d="M107.49,191.06 Q117.03,190.19 123.89,187.23 Q108.64,186.15 107.49,191.06 Z" fill="#2A9070" opacity="0.61"></path><path d="M107.49,191.06 Q97.95,191.93 90.65,190.13 Q105.47,186.44 107.49,191.06 Z" fill="#B6DADE" opacity="0.49"></path><line x1="107.49" y1="191.06" x2="123.89" y2="187.23" stroke="#1A6B50" stroke-width="0.7" opacity="0.55"></line><line x1="107.49" y1="191.06" x2="90.65" y2="190.13" stroke="#1A6B50" stroke-width="0.7" opacity="0.45"></line><path d="M106.13,175.41 Q115.76,174.62 122.08,171.69 Q107.34,170.47 106.13,175.41 Z" fill="#2A9070" opacity="0.62"></path><path d="M106.13,175.41 Q96.51,176.21 89.79,174.33 Q104.13,170.73 106.13,175.41 Z" fill="#B6DADE" opacity="0.48"></path><line x1="106.13" y1="175.41" x2="122.08" y2="171.69" stroke="#1A6B50" stroke-width="0.7" opacity="0.55"></line><line x1="106.13" y1="175.41" x2="89.79" y2="174.33" stroke="#1A6B50" stroke-width="0.7" opacity="0.45"></line><path d="M104.9,159.53 Q113.21,158.92 118.77,156.44 Q105.98,155.27 104.9,159.53 Z" fill="#2A9070" opacity="0.72"></path><path d="M104.9,159.53 Q96.58,160.14 90.72,158.47 Q103.21,155.48 104.9,159.53 Z" fill="#B6DADE" opacity="0.31"></path><line x1="104.9" y1="159.53" x2="118.77" y2="156.44" stroke="#1A6B50" stroke-width="0.7" opacity="0.55"></line><line x1="104.9" y1="159.53" x2="90.72" y2="158.47" stroke="#1A6B50" stroke-width="0.7" opacity="0.45"></line><path d="M103.79,143.47 Q112.16,142.93 117.76,140.48 Q104.91,139.2 103.79,143.47 Z" fill="#2A9070" opacity="0.73"></path><path d="M103.79,143.47 Q95.42,144.01 89.55,142.28 Q102.12,139.38 103.79,143.47 Z" fill="#B6DADE" opacity="0.32"></path><line x1="103.79" y1="143.47" x2="117.76" y2="140.48" stroke="#1A6B50" stroke-width="0.7" opacity="0.55"></line><line x1="103.79" y1="143.47" x2="89.55" y2="142.28" stroke="#1A6B50" stroke-width="0.7" opacity="0.45"></line><path d="M102.81,127.27 Q110.32,126.85 114.53,124.7 Q103.86,123.45 102.81,127.27 Z" fill="#2A9070" opacity="0.79"></path><path d="M102.81,127.27 Q95.3,127.69 90.88,126.1 Q101.35,123.59 102.81,127.27 Z" fill="#B6DADE" opacity="0.39"></path><line x1="102.81" y1="127.27" x2="114.53" y2="124.7" stroke="#1A6B50" stroke-width="0.7" opacity="0.55"></line><line x1="102.81" y1="127.27" x2="90.88" y2="126.1" stroke="#1A6B50" stroke-width="0.7" opacity="0.45"></line><path d="M101.97,110.99 Q109.29,110.64 114.82,108.59 Q103.02,107.27 101.97,110.99 Z" fill="#2A9070" opacity="0.78"></path><path d="M101.97,110.99 Q94.66,111.33 88.95,109.74 Q100.58,107.39 101.97,110.99 Z" fill="#B6DADE" opacity="0.43"></path><line x1="101.97" y1="110.99" x2="114.82" y2="108.59" stroke="#1A6B50" stroke-width="0.7" opacity="0.55"></line><line x1="101.97" y1="110.99" x2="88.95" y2="109.74" stroke="#1A6B50" stroke-width="0.7" opacity="0.45"></line><path d="M101.28,94.67 Q108.24,94.4 112.07,92.48 Q102.3,91.14 101.28,94.67 Z" fill="#2A9070" opacity="0.64"></path><path d="M101.28,94.67 Q94.31,94.94 90.35,93.37 Q99.98,91.23 101.28,94.67 Z" fill="#B6DADE" opacity="0.36"></path><line x1="101.28" y1="94.67" x2="112.07" y2="92.48" stroke="#1A6B50" stroke-width="0.7" opacity="0.55"></line><line x1="101.28" y1="94.67" x2="90.35" y2="93.37" stroke="#1A6B50" stroke-width="0.7" opacity="0.45"></line><path d="M100.73,78.36 Q106.04,78.21 108.97,76.77 Q101.53,75.68 100.73,78.36 Z" fill="#2A9070" opacity="0.79"></path><path d="M100.73,78.36 Q95.41,78.52 92.4,77.29 Q99.76,75.73 100.73,78.36 Z" fill="#B6DADE" opacity="0.33"></path><line x1="100.73" y1="78.36" x2="108.97" y2="76.77" stroke="#1A6B50" stroke-width="0.7" opacity="0.55"></line><line x1="100.73" y1="78.36" x2="92.4" y2="77.29" stroke="#1A6B50" stroke-width="0.7" opacity="0.45"></line><path d="M100.33,62.11 Q105.88,62 109.36,60.54 Q101.2,59.32 100.33,62.11 Z" fill="#2A9070" opacity="0.6"></path><path d="M100.33,62.11 Q94.77,62.23 91.24,60.91 Q99.35,59.36 100.33,62.11 Z" fill="#B6DADE" opacity="0.37"></path><line x1="100.33" y1="62.11" x2="109.36" y2="60.54" stroke="#1A6B50" stroke-width="0.7" opacity="0.55"></line><line x1="100.33" y1="62.11" x2="91.24" y2="60.91" stroke="#1A6B50" stroke-width="0.7" opacity="0.45"></line><path d="M100.08,45.98 Q105.08,45.93 108.77,44.64 Q100.89,43.47 100.08,45.98 Z" fill="#2A9070" opacity="0.7"></path><path d="M100.08,45.98 Q95.09,46.03 91.37,44.81 Q99.22,43.49 100.08,45.98 Z" fill="#B6DADE" opacity="0.41"></path><line x1="100.08" y1="45.98" x2="108.77" y2="44.64" stroke="#1A6B50" stroke-width="0.7" opacity="0.55"></line><line x1="100.08" y1="45.98" x2="91.37" y2="44.81" stroke="#1A6B50" stroke-width="0.7" opacity="0.45"></line>
    <path d="M100,30 C122,30 122,8 100,8 C84,8 84,20 92,20 C100,20 100,14 96,14" fill="none" stroke="#1A6B50" stroke-width="2.5" stroke-linecap="round"></path>
    <ellipse cx="120" cy="288" rx="12" ry="5" fill="#1A6B50" opacity="0.4"></ellipse>
  </g>
</svg>