<svg xmlns="http://www.w3.org/2000/svg" viewBox="0 0 512 512">
<defs>
  <linearGradient id="ss-body" x1="0" y1="0" x2="1" y2="1">
    <stop offset="0%" stop-color="#7C3AED"></stop>
    <stop offset="100%" stop-color="#0095A1"></stop>
  </linearGradient>
  <linearGradient id="ss-pocket" x1="0" y1="0" x2="0" y2="1">
    <stop offset="0%" stop-color="#6D28D9"></stop>
    <stop offset="100%" stop-color="#047857"></stop>
  </linearGradient>
  <linearGradient id="ss-strap" x1="0" y1="0" x2="1" y2="0">
    <stop offset="0%" stop-color="#5B21B6"></stop>
    <stop offset="100%" stop-color="#0369A1"></stop>
  </linearGradient>
  <linearGradient id="ss-pass" x1="0" y1="0" x2="0" y2="1">
    <stop offset="0%" stop-color="#FFFFFF"></stop>
    <stop offset="100%" stop-color="#C7E5E8"></stop>
  </linearGradient>
  <filter id="ss-shadow">
    <feDropShadow dx="0" dy="8" stdDeviation="12" flood-color="#10233A" flood-opacity="0.25"></feDropShadow>
  </filter>
</defs>


<rect x="148" y="160" width="216" height="248" rx="36" fill="url(#ss-body)" filter="url(#ss-shadow)"></rect>


<path d="M168,160 Q256,128 344,160 L344,196 Q256,168 168,196 Z" fill="#6D28D9" opacity="0.9"></path>


<path d="M220,145 Q256,128 292,145" stroke="#5B21B6" stroke-width="14" fill="none" stroke-linecap="round"></path>
<path d="M220,145 Q256,132 292,145" stroke="#7C3AED" stroke-width="8" fill="none" stroke-linecap="round"></path>


<rect x="176" y="260" width="160" height="110" rx="20" fill="url(#ss-pocket)" opacity="0.85"></rect>


<path d="M196,282 L316,282" stroke="#00D4BA" stroke-width="4" stroke-linecap="round" stroke-dasharray="8,6"></path>

<circle cx="316" cy="282" r="7" fill="#00D4BA"></circle>
<circle cx="316" cy="282" r="4" fill="#FFFFFF" opacity="0.8"></circle>


<path d="M196,306 L316,306" stroke="rgba(255,255,255,0.2)" stroke-width="2"></path>


<path d="M178,210 C155,230 148,280 152,340 C155,365 162,375 174,375" stroke="url(#ss-strap)" stroke-width="22" fill="none" stroke-linecap="round"></path>
<path d="M178,210 C158,230 151,280 155,340" stroke="rgba(255,255,255,0.2)" stroke-width="8" fill="none" stroke-linecap="round"></path>


<path d="M334,210 C357,230 364,280 360,340 C357,365 350,375 338,375" stroke="url(#ss-strap)" stroke-width="22" fill="none" stroke-linecap="round"></path>
<path d="M334,210 C354,230 361,280 357,340" stroke="rgba(255,255,255,0.2)" stroke-width="8" fill="none" stroke-linecap="round"></path>


<rect x="235" y="298" width="42" height="16" rx="8" fill="#5B21B6"></rect>
<rect x="241" y="302" width="30" height="8" rx="4" fill="#7C3AED"></rect>


<rect x="226" y="138" width="60" height="42" rx="6" fill="url(#ss-pass)" filter="url(#ss-shadow)"></rect>

<rect x="234" y="148" width="20" height="3" rx="1.5" fill="#0095A1" opacity="0.6"></rect>
<rect x="234" y="155" width="36" height="2" rx="1" fill="#94A3B8" opacity="0.5"></rect>
<rect x="234" y="160" width="28" height="2" rx="1" fill="#94A3B8" opacity="0.4"></rect>

<path d="M268,148 L274,158 L268,168 L262,158 Z" fill="#0095A1" opacity="0.5"></path>


<ellipse cx="210" cy="220" rx="28" ry="50" fill="white" opacity="0.1" transform="rotate(-15,210,220)"></ellipse>


<rect x="164" y="372" width="184" height="32" rx="16" fill="#5B21B6" opacity="0.7"></rect>

<circle cx="192" cy="392" r="8" fill="#4C1D95"></circle>
<circle cx="320" cy="392" r="8" fill="#4C1D95"></circle>
</svg>