<svg
        width="64"
        height="64"
        viewBox="0 0 64 64"
        fill="none"
        xmlns="http://www.w3.org/2000/svg"
        role="img"
        aria-label="Who's Moving icon"
>
    <g
            className="icon-who-moving"
            stroke="#334155"
            strokeWidth="2.2"
            strokeLinecap="round"
            strokeLinejoin="round"
    >
        {/* Left small person */}
        <circle cx="18" cy="22" r="4" fill="#A78BFA" />
        <path
                d="M12.5 34C12.5 29.8 15 27 18 27C21 27 23.5 29.8 23.5 34V37H12.5V34Z"
                fill="#FFF7ED"
        />

        {/* Center main person */}
        <circle cx="32" cy="18" r="5.5" fill="#F472B6" />
        <path
                d="M23.5 34C23.5 28.8 27.3 25.5 32 25.5C36.7 25.5 40.5 28.8 40.5 34V38H23.5V34Z"
                fill="#FFF7ED"
        />

        {/* Right small person */}
        <circle cx="46" cy="22" r="4" fill="#7FD8C2" />
        <path
                d="M40.5 34C40.5 29.8 43 27 46 27C49 27 51.5 29.8 51.5 34V37H40.5V34Z"
                fill="#FFF7ED"
        />

        {/* Suitcase */}
        <rect x="25" y="39.5" width="14" height="12" rx="3" fill="#60A5FA" />
        <path d="M29 39.5V36.8C29 35.7 29.9 34.8 31 34.8H33C34.1 34.8 35 35.7 35 36.8V39.5" />
        <path d="M32 43.5V47.5" />
        <circle cx="36.2" cy="44.5" r="0.8" fill="#FFF7ED" stroke="none" />
    </g>
</svg>